<svg width="193" height="33" viewBox="0 0 193 33" fill="none" xmlns="http://www.w3.org/2000/svg">
<path d="M100.719 14.9951C100.719 14.5583 100.333 14.2186 99.8367 14.2186H96.803C96.3065 14.2186 95.9204 14.5583 95.9204 14.9951V16.4024C95.9204 17.0333 96.0859 17.3245 97.1339 17.47L101.988 18.3436C105.353 18.8289 106.787 19.945 106.787 22.5171V26.545C106.787 28.3405 105.132 29.7964 103.091 29.7964H93.7692C91.7283 29.7964 90.0736 28.3405 90.0736 26.545V23.4391H95.5895V25.1376C95.5895 25.5744 95.9756 25.9141 96.472 25.9141H100.333C100.83 25.9141 101.216 25.5744 101.216 25.1376V23.2935C101.216 22.6626 101.05 22.3715 100.002 22.2259L95.1482 21.3524C91.7835 20.8671 90.3493 19.7509 90.3493 17.1789V13.6363C90.3493 11.7922 92.0041 10.3363 94.1002 10.3363H102.429C104.525 10.3363 106.235 11.8407 106.235 13.6848V16.3539H100.719V14.9951Z" fill="white"/>
<path d="M157.367 14.1705C156.816 14.1705 156.485 14.4617 156.485 14.947V17.9558H162.166V14.9955C162.166 14.5102 161.835 14.2191 161.284 14.2191H157.367V14.1705ZM156.485 24.944C156.485 25.3807 156.871 25.7204 157.367 25.7204H161.284C161.78 25.7204 162.166 25.3807 162.166 24.944V23.4396H167.793V26.4484C167.793 28.2439 166.138 29.7483 164.042 29.7483H154.609C152.513 29.7483 150.859 28.2924 150.859 26.4484V13.6367C150.859 11.8412 152.513 10.3368 154.609 10.3368H164.042C166.138 10.3368 167.793 11.8412 167.793 13.6367V21.4013H156.485V24.944Z" fill="white"/>
<path d="M177.611 3.25097H172.095V29.6997H177.611V3.25097Z" fill="white"/>
<path d="M187.76 3.25097H182.244V29.6997H187.76V3.25097Z" fill="white"/>
<path d="M81.194 10.6765V24.7016C81.194 25.1383 80.8079 25.4295 80.3666 25.4295H76.7812C76.2848 25.4295 75.9539 25.0898 75.9539 24.7016V10.6765H70.4931V26.4486C70.4931 28.2442 72.1479 29.7487 74.2439 29.7487H82.9591C84.9999 29.7487 86.7099 28.2928 86.7099 26.4486V10.6765H81.194Z" fill="white"/>
<path d="M60.3975 12.8606C60.3975 13.3459 59.9563 13.7341 59.4047 13.7341H55.5435V7.66801H59.4047C59.9563 7.66801 60.3975 8.05624 60.3975 8.54153V12.8606ZM60.3975 24.6046C60.3975 25.0899 59.9563 25.4781 59.4047 25.4781H55.5435V17.8591H59.4047C59.9563 17.8591 60.3975 18.2473 60.3975 18.7326V24.6046ZM63.7622 15.6268C65.8031 15.2385 66.6305 14.0253 66.6305 11.6474V6.69743C66.6305 4.90186 64.9757 3.39746 62.8797 3.39746H49.6416V29.8457H62.8797C64.9205 29.8457 66.6305 28.3899 66.6305 26.5458V20.0429C66.6305 17.5194 66.0237 16.4032 63.7622 15.6268Z" fill="white"/>
<path d="M191.125 3.97941C191.345 3.97941 191.566 3.97941 191.676 4.02794C191.897 4.125 192.007 4.27059 192.007 4.46472C192.007 4.61031 191.952 4.7559 191.787 4.80443C191.731 4.85296 191.621 4.85296 191.511 4.9015C191.676 4.9015 191.787 4.99856 191.842 5.09562C191.897 5.19268 191.952 5.28974 191.952 5.38681V5.5324C191.952 5.58093 191.952 5.62946 191.952 5.67799C191.952 5.72652 191.952 5.77505 191.952 5.77505H191.621V5.58093C191.621 5.38681 191.566 5.24121 191.456 5.19268C191.4 5.14415 191.235 5.14415 191.069 5.14415H190.794V5.82358H190.463V3.97941H191.125ZM191.511 4.22206C191.4 4.17353 191.29 4.17353 191.069 4.17353H190.794V4.80443H191.125C191.29 4.80443 191.4 4.80443 191.456 4.7559C191.566 4.70737 191.676 4.61031 191.676 4.46472C191.676 4.36765 191.621 4.27059 191.511 4.22206ZM192.448 5.96918C192.117 6.26036 191.676 6.45449 191.18 6.45449C190.683 6.45449 190.242 6.30889 189.911 5.96918C189.58 5.67799 189.36 5.28974 189.36 4.85296C189.36 4.41618 189.525 4.02794 189.911 3.73675C190.242 3.44556 190.683 3.25144 191.18 3.25144C191.676 3.25144 192.117 3.39703 192.448 3.73675C192.779 4.02794 193 4.41618 193 4.85296C193 5.28974 192.835 5.67799 192.448 5.96918ZM190.077 3.88234C189.801 4.17353 189.635 4.46472 189.635 4.85296C189.635 5.24121 189.801 5.58093 190.077 5.82358C190.352 6.11477 190.739 6.21183 191.18 6.21183C191.621 6.21183 191.952 6.06624 192.283 5.82358C192.559 5.5324 192.724 5.24121 192.724 4.85296C192.724 4.46472 192.559 4.17353 192.283 3.88234C191.952 3.59116 191.621 3.4941 191.18 3.4941C190.739 3.4941 190.408 3.59116 190.077 3.88234Z" fill="white"/>
<path d="M120.026 14.8988H116.109V29.7004H110.594V3.25167H116.109V10.6767H123.115C125.211 10.6767 126.865 12.1812 126.865 13.9768V29.7004H121.35V16.0635C121.35 15.4326 120.743 14.8988 120.026 14.8988Z" fill="white"/>
<path d="M140.213 14.8985H136.241V29.7001H130.726V10.6765H143.357C145.398 10.6765 147.053 12.1324 147.053 13.928V29.7001H141.537V16.0633C141.537 15.4324 140.93 14.8985 140.213 14.8985Z" fill="white"/>
<path d="M18.7541 3.59118C26.8624 3.59118 33.4263 9.36618 33.4263 16.5C33.4263 23.6338 26.8624 29.4088 18.7541 29.4088C10.6457 29.4088 4.08177 23.6338 4.08177 16.5C4.08177 9.36618 10.6457 3.59118 18.7541 3.59118ZM18.7541 0C8.38417 0 0 7.37647 0 16.5C0 25.6235 8.38417 33 18.7541 33C29.1239 33 37.5081 25.6235 37.5081 16.5C37.5633 7.37647 29.1239 0 18.7541 0Z" fill="white"/>
<path d="M19.3039 17.6648H19.359C19.4142 17.6648 19.4694 17.6648 19.5245 17.6648H19.5797C19.6348 17.6648 19.69 17.7133 19.7452 17.7133C19.8003 17.7618 19.8555 17.7618 19.8555 17.8104C20.021 17.9559 20.021 18.1986 20.021 18.5868V22.7604C20.021 23.2456 19.69 23.3912 19.0281 23.3912C18.9178 23.3912 17.5939 23.3427 17.4836 23.3427V17.6162H18.9729C19.1384 17.6162 19.2487 17.6648 19.3039 17.6648ZM19.5245 9.90007H19.5797C19.6348 9.90007 19.69 9.9486 19.7452 9.9486L19.8555 10.0457C20.021 10.1912 20.0761 10.4339 20.0761 10.8707V13.4912C20.0761 13.9765 19.7452 14.1221 19.0832 14.1221C18.9729 14.1221 17.6491 14.0736 17.5388 14.0736V9.90007H19.0281C19.1384 9.90007 19.1936 9.90007 19.3039 9.90007H19.359C19.4694 9.85154 19.5245 9.85154 19.5245 9.90007ZM24.9301 22.4692V19.2177C24.9301 17.3251 24.4888 16.4515 22.7789 15.8692C24.3234 15.578 24.9301 14.6559 24.9301 12.8118V10.7251C24.9301 7.18242 24.213 6.60007 19.359 6.60007H12.7399V26.6427H19.4142C24.2682 26.6427 24.9301 26.0118 24.9301 22.4692Z" fill="white"/>
</svg>
