<svg width="174" height="24" viewBox="0 0 174 24" fill="none" xmlns="http://www.w3.org/2000/svg">
<path d="M156.673 24V0H162.668L168.078 9.95294V0H174V24H168.078L162.522 13.9765V24H156.673ZM75.8874 0H90.8017L89.0471 5.36471H85.0992V24H79.1773V5.36471H74.0597L75.8874 0ZM65.0672 15.5294H72.2319V10.1647H65.0672V5.36471H72.2319V0H59.1454V24H65.0672V15.5294ZM0 4.23529L3.21681 0H14.9143V5.36471H6.79916V18.7059H14.9143V24H3.21681L0 19.7647V4.23529ZM122.019 21.4588L125.967 12.4235V24H131.889V0H124.871L120.996 8.82353L117.121 0H110.103V24H116.024V12.4235L119.972 21.4588H122.019ZM92.8487 18.0706L90.8748 24H105.277L107.544 17.1529L99.2092 5.36471H105.497L107.251 0H93.7261L91.8252 5.43529L100.745 18.0706H92.8487ZM31.437 14.8941L34.5076 11.6471V4.23529L31.2908 0H18.2773V24H24.1992V16.3765H25.442L29.6824 24H36.4815L31.437 14.8941ZM28.2202 10.7294H24.1992V5.36471H28.2202V10.7294ZM51.6151 0H41.8185L38.6017 4.23529V24H44.5235V16.9412H48.9101V24H54.8319V4.23529L51.6151 0ZM48.9101 11.6471H44.5235V5.36471H48.9101V11.6471ZM148.997 0H139.2L135.983 4.23529V24H141.905V16.9412H146.292V24H152.213V4.23529L148.997 0ZM146.292 11.6471H141.905V5.36471H146.292V11.6471Z" fill="white"/>
</svg>
