<svg width="175" height="31" viewBox="0 0 175 31" fill="none" xmlns="http://www.w3.org/2000/svg">
<path d="M173.15 6.00577C173.15 5.91999 173.15 5.91999 173.15 6.00577C173.5 5.66267 173.587 5.31957 173.412 4.97647C173.325 4.63337 172.975 4.46182 172.625 4.37604H171.838C171.576 4.37604 171.488 4.37604 171.488 4.71914V6.86352C171.488 7.2924 171.488 7.2924 171.925 7.2924C172.013 7.2924 172.1 7.20662 172.1 7.12085V6.43464C172.1 6.34887 172.1 6.26309 172.188 6.26309C172.275 6.26309 172.363 6.26309 172.363 6.34887C172.538 6.52042 172.625 6.69197 172.8 6.9493C173.15 7.46395 173.15 7.46395 173.674 7.03507C173.5 6.6062 173.325 6.34887 173.15 6.00577ZM172.45 5.57689H172.275C172.188 5.57689 172.1 5.57689 172.1 5.40534V5.23379C172.1 4.89069 172.1 4.89069 172.275 4.89069C172.538 4.89069 172.712 4.97647 172.712 5.23379C172.8 5.49112 172.712 5.57689 172.45 5.57689Z" fill="white"/>
<path d="M174.825 5.14797C174.825 4.97642 174.738 4.89065 174.738 4.7191C174.388 3.94712 173.426 3.17514 172.201 3.3467C171.152 3.51825 170.015 4.376 170.015 5.83418C170.015 7.37813 171.502 8.49321 173.076 8.15011C173.951 7.97856 174.738 7.20658 174.913 6.4346C174.913 6.4346 174.913 6.34883 175 6.26305V5.31953L174.825 5.14797ZM172.464 7.72123C171.414 7.72123 170.54 6.86348 170.54 5.83418C170.54 4.80487 171.414 3.94712 172.464 3.94712C173.513 3.94712 174.388 4.89065 174.388 5.83418C174.388 6.86348 173.513 7.72123 172.464 7.72123ZM169.403 18.1858C169.403 18.0142 169.315 17.8427 169.14 17.7569C168.791 17.4996 168.441 17.2423 168.091 17.0707C167.479 16.6418 166.779 16.1272 166.079 15.6125C166.167 15.5268 166.254 15.441 166.342 15.441C167.129 14.7548 167.916 14.1544 168.703 13.4682C168.878 13.3824 168.966 13.2108 168.966 13.0393V7.29235C168.966 7.1208 168.966 6.94925 168.791 6.86348C167.741 5.91995 166.604 4.97642 165.555 4.0329C165.38 3.86135 165.205 3.86135 165.03 3.86135H155.41C154.973 3.86135 155.06 3.77557 155.06 4.29022V27.7069C155.06 27.8784 155.147 27.8784 155.235 27.8784H160.307C160.395 27.8784 160.482 27.8784 160.482 27.7069V18.4431C160.482 18.0143 160.482 18.1 160.832 18.1H163.543C163.981 18.1 163.98 18.0143 163.98 18.5289V27.6211C163.98 27.9642 163.98 27.9642 164.243 27.9642H169.053C169.315 27.9642 169.315 27.9642 169.315 27.7069V23.847C169.403 21.7884 169.403 19.9871 169.403 18.1858ZM163.98 13.2108C163.98 13.4682 163.981 13.4682 163.718 13.4682H160.657C160.395 13.4682 160.395 13.4682 160.395 13.2108V8.57898C160.395 8.32166 160.395 8.32166 160.657 8.32166H163.631C163.893 8.32166 163.893 8.32166 163.893 8.57898V10.8949C163.981 11.6669 163.98 12.4389 163.98 13.2108ZM151.649 15.7841V7.37813C151.649 7.20658 151.649 7.03503 151.474 6.94925C150.337 5.91995 149.113 4.97642 147.976 3.94712C147.889 3.86135 147.801 3.77557 147.626 3.77557H141.242C141.067 3.77557 140.98 3.77557 140.892 3.94712C139.755 4.97642 138.531 5.91995 137.394 6.94925C137.219 7.03503 137.219 7.20658 137.219 7.37813V24.1043C137.219 24.3616 137.306 24.5332 137.481 24.7047C138.618 25.6482 139.755 26.5918 140.892 27.6211C141.067 27.7926 141.154 27.7926 141.417 27.7926H147.626C147.801 27.7926 147.976 27.7068 148.063 27.6211C149.2 26.6775 150.337 25.734 151.474 24.7047C151.649 24.5332 151.737 24.3616 151.737 24.1901C151.649 21.3595 151.649 18.5289 151.649 15.7841ZM146.139 8.66476V22.7319C146.139 22.9892 146.139 22.9892 145.877 22.9892H142.816C142.554 22.9892 142.554 22.9892 142.554 22.7319V8.49321C142.554 8.06433 142.466 8.06433 142.991 8.06433H145.79C146.139 8.32166 146.139 8.32166 146.139 8.66476ZM126.462 18.0143V8.75053C126.462 8.23588 126.462 8.32166 126.024 8.32166H122.964C122.701 8.32166 122.701 8.32166 122.701 8.06433V4.0329C122.701 3.77557 122.701 3.77557 122.964 3.77557H135.032C135.382 3.77557 135.382 3.6898 135.382 4.11867V8.23588C135.382 8.32166 135.382 8.32166 135.295 8.32166H131.972C131.709 8.32166 131.709 8.32166 131.709 8.57898V27.278C131.709 27.7068 131.709 27.7069 131.272 27.7069H126.462C126.374 27.7069 126.287 27.7068 126.287 27.5353V27.278C126.462 24.1901 126.462 21.1022 126.462 18.0143ZM122.789 27.4495C122.701 26.5918 122.526 25.8198 122.439 24.962C122.264 23.5896 122.002 22.2172 121.827 20.8448C121.652 19.4724 121.389 18.0143 121.214 16.6418C121.039 15.2694 120.777 13.8113 120.602 12.4389C120.427 11.0665 120.165 9.60829 119.99 8.23588C119.728 6.86348 119.553 5.4053 119.378 4.0329C119.378 3.6898 119.29 3.77557 119.028 3.77557H111.332C111.069 3.77557 111.069 3.77557 111.069 4.0329C110.982 4.80487 110.807 5.57685 110.72 6.34883C110.457 8.15011 110.195 9.86561 109.845 11.6669C109.583 13.1251 109.408 14.5832 109.145 16.1272C108.883 17.5854 108.708 19.1293 108.446 20.5875C108.183 22.0457 108.008 23.5039 107.746 25.0478C107.571 25.9056 107.484 26.7633 107.309 27.6211H112.206C112.381 27.6211 112.381 27.5353 112.381 27.3637C112.469 26.9349 112.469 26.506 112.556 25.9913C112.644 25.1336 112.731 24.1901 112.819 23.3323C112.819 23.075 112.819 23.075 113.168 23.075H117.104C117.104 23.1608 117.104 23.2465 117.191 23.3323C117.366 24.6189 117.541 25.9056 117.629 27.1922C117.629 27.4495 117.629 27.4495 117.979 27.4495H122.701C122.789 27.4495 122.876 27.4495 122.964 27.3637C122.789 27.6211 122.789 27.5353 122.789 27.4495ZM116.404 18.7005H113.343C113.431 18.2716 113.431 17.8427 113.518 17.4138C113.693 16.0414 113.868 14.7548 114.043 13.3824C114.218 12.0958 114.393 10.7234 114.568 9.43674C114.568 9.09364 114.655 8.75053 114.655 8.49321C114.655 8.23588 114.655 8.32166 115.005 8.23588C115.18 8.23588 115.267 8.32166 115.267 8.49321C115.442 9.60829 115.53 10.8091 115.705 11.9242C115.88 13.1251 115.967 14.3259 116.142 15.5268C116.229 16.4703 116.404 17.4996 116.492 18.4431C116.404 18.5289 116.404 18.6147 116.404 18.7005ZM104.685 27.278C104.685 27.7068 104.685 27.7069 104.248 27.7069H99.0005C98.913 27.7069 98.8256 27.6211 98.8256 27.5353V4.11867C98.8256 3.6898 98.7381 3.6898 99.1754 3.6898H104.51C104.685 3.6898 104.685 3.77557 104.685 3.86135V27.278ZM95.9395 7.46391C95.9395 7.20658 95.8521 7.03503 95.6772 6.86348C94.5402 5.91995 93.4907 4.97642 92.3538 4.0329C92.1789 3.86135 92.004 3.86135 91.8291 3.86135H81.7716C81.5967 3.86135 81.5092 3.86135 81.5092 4.11867V27.5353C81.5092 27.8784 81.5092 27.8784 81.7716 27.8784H91.8291C92.004 27.8784 92.0915 27.8784 92.1789 27.7069C93.3158 26.7633 94.3653 25.734 95.5022 24.7905C95.6772 24.6189 95.7646 24.4474 95.7646 24.1901C95.9395 18.5289 95.9395 12.9535 95.9395 7.46391ZM90.5172 22.8177C90.5172 23.1608 90.5172 23.1608 90.1674 23.1608H87.2814C86.9315 23.1608 86.9315 23.1608 86.9315 22.8177V8.66476C86.9315 8.32166 86.9315 8.32166 87.2814 8.32166H90.08C90.5173 8.32166 90.5172 8.32166 90.5172 8.66476V22.8177ZM79.0605 27.5353C78.7981 26.0771 78.6232 24.7047 78.3608 23.2465C78.011 21.1879 77.7486 19.2151 77.3988 17.1565C77.049 15.0979 76.7866 13.1251 76.4368 11.0665C76.087 8.75053 75.6497 6.34883 75.2998 4.0329C75.2998 3.77557 75.2999 3.77557 75.0375 3.77557H66.904C66.6417 3.77557 66.6417 3.77557 66.6417 4.0329C66.4668 5.14797 66.2919 6.34883 66.1169 7.46391C65.8546 9.17941 65.5047 10.8949 65.2424 12.6104L64.4553 17.2423C64.1929 18.7862 63.9305 20.416 63.6682 21.9599C63.4058 23.6754 63.056 25.3051 62.7936 27.0206C62.7936 27.278 62.7061 27.5353 62.7061 27.7926H67.6037C67.9535 27.7926 67.9535 27.7926 68.041 27.4495C68.2159 26.1629 68.3908 24.8763 68.4783 23.5896C68.4783 23.3323 68.4783 23.3323 68.7406 23.3323H72.6762C72.9385 23.3323 72.9385 23.3323 72.9385 23.5896C73.026 24.5332 73.2009 25.3909 73.2884 26.2487C73.3758 26.6775 73.3758 27.1064 73.4633 27.5353C73.4633 27.7068 73.5507 27.7926 73.7256 27.7926H78.973C79.0605 27.6211 79.0605 27.5353 79.0605 27.5353ZM72.3263 18.6147H69.4403C69.1779 18.6147 69.1779 18.6147 69.1779 18.3574C69.2654 17.4996 69.4403 16.5561 69.5277 15.6983C69.7027 14.5832 69.7901 13.5539 69.965 12.4389C70.1399 11.0665 70.3148 9.77984 70.4898 8.40743C70.4898 8.23588 70.5772 8.15011 70.7521 8.23588C71.0145 8.23588 71.0145 8.23588 71.102 8.40743L71.3643 10.2087C71.5392 11.4096 71.6267 12.5246 71.8016 13.7255C71.9765 14.8406 72.064 16.0414 72.2389 17.1565C72.3263 17.5854 72.3263 18.0143 72.4138 18.4431C72.3263 18.5289 72.4138 18.6147 72.3263 18.6147ZM49.7626 15.6983V4.20445C49.7626 3.77557 49.7626 3.77557 50.1999 3.77557H55.01C55.0975 3.77557 55.0975 3.77557 55.0975 3.86135V22.7319C55.0975 23.2465 55.01 23.1608 55.5347 23.1608H61.3943C61.5692 23.1608 61.5692 23.2465 61.5692 23.3323V27.3637C61.5692 27.7068 61.5692 27.7069 61.2194 27.7069H49.8501C49.7626 27.7069 49.6752 27.7068 49.6752 27.5353V27.278C49.7626 23.4181 49.7626 19.5582 49.7626 15.6983ZM37.7811 15.6983V22.8177C37.7811 23.075 37.7811 23.075 38.0435 23.075H41.1919C41.4543 23.075 41.4543 23.075 41.4543 22.8177V19.8155C41.4543 19.5582 41.4543 19.5582 41.1919 19.5582H39.7052C39.4428 19.5582 39.4428 19.5582 39.4428 19.3009V15.441C39.4428 15.1837 39.4428 15.1837 39.7052 15.1837H46.6142C46.8766 15.1837 46.8766 15.1837 46.8766 15.5268V24.1901C46.8766 24.3616 46.7891 24.5332 46.7017 24.6189C45.5647 25.5625 44.3403 26.5918 43.2034 27.5353C43.0285 27.6211 42.941 27.7069 42.6787 27.7069H36.5567C36.3818 27.7069 36.2069 27.6211 36.1194 27.5353C34.9825 26.5918 33.8456 25.5625 32.7086 24.6189C32.4463 24.3616 32.3588 24.2758 32.3588 24.1043V7.29235C32.3588 7.1208 32.3588 6.94925 32.5337 6.86348C33.6707 5.91995 34.8951 4.89065 36.032 3.86135C36.1194 3.6898 36.2944 3.6898 36.4693 3.6898H42.6787C42.8536 3.6898 42.941 3.6898 43.1159 3.86135C44.2529 4.80487 45.4773 5.83418 46.6142 6.7777C46.7891 6.94925 46.8766 7.03503 46.8766 7.29235V12.4389C46.8766 12.5246 46.7891 12.6104 46.7017 12.6104H41.6292C41.5417 12.6104 41.4543 12.6104 41.4543 12.4389V8.32166C41.4543 8.23588 41.4543 8.15011 41.2794 8.15011H38.0435C37.6937 8.15011 37.6936 8.15011 37.6936 8.49321C37.7811 10.9807 37.7811 13.2966 37.7811 15.6983ZM18.1909 23.6754C18.1909 22.3888 18.1909 21.1022 18.3658 19.8155C18.6282 16.8134 19.0655 13.897 19.8526 10.9807C19.8526 10.8949 19.8526 10.8091 19.94 10.7234C19.94 10.6376 20.0275 10.5518 20.2024 10.466C20.9895 10.2945 21.7766 10.0372 22.5637 9.77984C22.7386 9.77984 22.7386 9.77984 22.8261 9.95139C23.001 10.5518 23.0885 11.1522 23.1759 11.7527C23.3508 12.8677 23.4383 14.0686 23.4383 15.1837C23.4383 16.1272 23.5257 17.1565 23.4383 18.1C23.3508 19.4724 23.2634 20.9306 23.1759 22.303C22.9135 24.962 22.3888 27.5353 21.8641 30.1086C21.8641 30.2801 21.6892 30.3659 21.5142 30.4517C20.7271 30.6232 20.0275 30.7947 19.2404 30.9663C18.978 31.0521 18.978 30.9663 18.978 30.7948L18.7156 29.2508C18.4533 27.9642 18.3658 26.5918 18.3658 25.3051C18.1909 24.8763 18.1909 24.2758 18.1909 23.6754ZM25.0125 0.258789C25.1874 0.516115 25.4498 0.77344 25.7121 0.944991C26.1494 1.28809 26.4992 1.71697 26.9365 2.06007C26.9365 2.14584 26.7616 2.23162 26.6742 2.31739C24.6627 4.376 22.3013 6.17728 19.7651 7.63546C16.5292 9.60829 13.1184 11.238 9.53273 12.6104C9.008 12.782 9.18291 12.8677 8.65817 12.4389C8.13343 12.01 7.6087 11.5811 7.17141 11.1522C6.90905 10.8949 6.90905 10.9807 7.17141 10.7234C7.95852 9.95139 8.83308 9.17941 9.70765 8.49321C12.5937 6.17728 15.7421 4.376 19.0655 2.74627C20.9021 1.88852 22.7386 1.11654 24.6627 0.344564C24.7501 0.344564 24.7501 0.344564 24.8376 0.258789H25.0125ZM0 11.5811C0.174913 11.5811 0.174913 11.4096 0.174913 11.3238C0.437281 10.8091 0.69965 10.2087 0.962019 9.69406C0.962019 9.60829 1.04948 9.52251 1.13693 9.43674C1.22439 9.17941 1.22439 9.17941 1.48676 9.26519C2.09895 9.52251 2.62369 9.86561 3.23588 10.2087C5.24738 11.4096 6.9965 12.782 8.74563 14.2401C10.0575 15.3552 11.3693 16.5561 12.5937 17.8427C13.993 19.3009 15.3923 20.8448 16.6167 22.4746C16.7041 22.5603 16.7041 22.6461 16.7916 22.6461C16.8791 22.7319 16.8791 22.8177 16.7916 22.9892C16.4418 23.6754 16.1794 24.4474 15.8296 25.1336C15.7421 25.3909 15.7421 25.3909 15.4798 25.2194C13.993 24.5332 12.5937 23.5896 11.2819 22.6461C9.35782 21.2737 7.6087 19.7298 5.94703 18.1C3.93553 16.1272 2.01149 13.9828 0.262369 11.7527C0.174913 11.6669 0.174913 11.5811 0 11.4953V11.5811Z" fill="white"/>
</svg>
