<svg width="182" height="44" viewBox="0 0 182 44" fill="none" xmlns="http://www.w3.org/2000/svg">
<path d="M80.3663 18.6436H67.5248C67.469 18.6436 67.4226 18.6892 67.4226 18.7468V36.8418C67.4226 36.8981 67.4677 36.945 67.5248 36.945H78.9911C79.0296 36.945 79.0641 36.9236 79.0814 36.8887L80.4552 34.1794C80.4911 34.111 80.4406 34.0291 80.365 34.0291H70.7756V29.1805H75.1323C75.1708 29.1805 75.2066 29.1577 75.2239 29.1215L76.611 26.3866C76.6442 26.3182 76.5938 26.2391 76.5194 26.2391H70.777V21.5581H78.9725C79.011 21.5581 79.0455 21.5367 79.0628 21.5031L80.4552 18.7938C80.4911 18.7254 80.442 18.6436 80.3663 18.6436Z" fill="white"/>
<path d="M121.223 29.6352H121.222L109.656 18.3525C109.529 18.2157 109.303 18.3069 109.303 18.4933V36.8418C109.303 36.8981 109.348 36.9451 109.405 36.9451H112.53C112.587 36.9451 112.632 36.8994 112.632 36.8418L112.634 25.9655L124.2 37.2656C124.327 37.4024 124.553 37.3112 124.553 37.1248V21.4401C124.553 21.4119 124.541 21.3838 124.519 21.3636L121.395 18.3136C121.33 18.2519 121.223 18.2989 121.223 18.3887V29.6352Z" fill="white"/>
<path d="M133.464 36.8847C133.446 36.9209 133.41 36.9451 133.371 36.9451H129.513C129.439 36.9451 129.39 36.8673 129.42 36.7989L138.889 18.4075C138.962 18.2479 139.186 18.2466 139.259 18.4062L148.732 36.7975C148.763 36.8659 148.714 36.9437 148.639 36.9437H144.879C144.84 36.9437 144.802 36.9196 144.786 36.8834C144.786 36.8834 139.13 25.4786 139.116 25.4786L133.464 36.8847Z" fill="white"/>
<path d="M178.381 36.7802L171.854 30.597C173.859 29.477 175.201 27.3028 175.126 24.8282C175.024 21.3584 172.093 18.6423 168.63 18.6423H161.512C161.43 18.6423 161.381 18.7349 161.426 18.8033L164.762 21.9955C164.782 22.0236 164.814 22.0411 164.848 22.0411H168.68C170.267 22.0411 171.633 23.2831 171.711 24.8711C171.793 26.545 170.479 27.9359 168.836 27.9735H164.585C164.502 27.9735 164.453 28.0687 164.5 28.1371L173.585 36.9009C173.605 36.9277 173.636 36.9425 173.669 36.9425H178.298C178.381 36.9452 178.43 36.8486 178.381 36.7802Z" fill="white"/>
<path d="M157.084 18.3901V36.8418C157.084 36.8994 157.038 36.945 156.982 36.945H153.738C153.682 36.945 153.635 36.8994 153.635 36.8418V21.5165C153.635 21.4884 153.647 21.4602 153.669 21.4401L156.913 18.3136C156.979 18.2532 157.084 18.3002 157.084 18.3901Z" fill="white"/>
<path d="M98.7964 29.6352L87.2292 18.3526C87.1018 18.2158 86.8761 18.307 86.8761 18.4934V36.8418C86.8761 36.8981 86.9213 36.9451 86.9783 36.9451H90.1031C90.1602 36.9451 90.2053 36.8995 90.2053 36.8418L90.2066 25.9655L101.773 37.2657C101.9 37.4025 102.126 37.3113 102.126 37.1248V21.4401C102.126 21.412 102.114 21.3838 102.092 21.365L98.9677 18.315C98.9026 18.2533 98.7964 18.3003 98.7964 18.3901V29.6352Z" fill="white"/>
<path d="M46.1892 32.3968C46.1892 34.8902 48.2321 36.9047 50.6998 36.9249V36.9302H55.7387V36.9249C58.205 36.9047 60.2493 34.8902 60.2493 32.3968V18.3873C60.2493 18.2975 60.1112 18.2545 60.0449 18.3149L56.8471 21.3797C56.8258 21.3985 56.8006 21.4266 56.8006 21.4548V31.6752C56.8006 32.9279 55.821 33.9781 54.5798 33.9781H51.8586C50.6161 33.9781 49.6378 32.9963 49.6378 31.6752V29.2663C49.6378 29.1764 49.4971 29.1281 49.4307 29.1885L46.2396 32.2425C46.2184 32.2613 46.1878 32.2881 46.1878 32.3176V32.3968H46.1892Z" fill="white"/>
<path d="M0 32.1983L14.3469 18.3752V36.4608C14.3469 36.8444 15.1075 37.1556 16.0446 37.1556C16.9818 37.1556 17.7477 36.8444 17.7477 36.4608V0L32.1132 13.8297V42.538C32.1132 43.3374 31.4773 43.9866 30.6888 43.9987L30.6875 44H1.4469C0.647785 44 0 43.3455 0 42.538V32.1983Z" fill="white"/>
<path d="M182 20.4127C182 21.4173 181.221 22.2046 180.207 22.2046C179.203 22.2046 178.403 21.4173 178.403 20.4127C178.403 19.4309 179.203 18.6435 180.207 18.6435C181.221 18.6435 182 19.4309 182 20.4127ZM178.849 20.4127C178.849 21.2013 179.426 21.8264 180.216 21.8264C180.986 21.8264 181.55 21.2013 181.55 20.4234C181.55 19.6347 180.985 18.999 180.205 18.999C179.426 18.999 178.849 19.6361 178.849 20.4127ZM179.928 21.3408H179.522V19.5717C179.681 19.5395 179.907 19.5167 180.195 19.5167C180.527 19.5167 180.675 19.5717 180.804 19.6468C180.9 19.7219 180.974 19.8614 180.974 20.0358C180.974 20.2303 180.824 20.3805 180.612 20.4449V20.4663C180.781 20.5307 180.878 20.6608 180.931 20.8982C180.986 21.1678 181.016 21.2764 181.06 21.3408H180.622C180.569 21.2764 180.537 21.1142 180.483 20.9089C180.451 20.7145 180.345 20.6286 180.12 20.6286H179.928V21.3408ZM179.939 20.3376H180.131C180.355 20.3376 180.537 20.2625 180.537 20.0787C180.537 19.9164 180.42 19.8091 180.163 19.8091C180.055 19.8091 179.981 19.8198 179.939 19.8306V20.3376Z" fill="white"/>
</svg>
