<svg xmlns="http://www.w3.org/2000/svg" fill="none" viewBox="0 0 112 95">
    <path class="logo-shape" fill="#000" d="M97.085 13.913 80.521 81.087C80.126 82.69 78.453 84 76.803 84h-9c-1.65 0-2.677-1.31-2.282-2.913l16.564-67.174C82.48 12.311 84.153 11 85.803 11h9c1.65 0 2.677 1.311 2.282 2.913ZM51.303 84h-9c-1.65 0-2.677-1.31-2.282-2.913l16.564-67.174C56.98 12.311 58.653 11 60.303 11h9c1.65 0 2.677 1.311 2.282 2.913L55.021 81.087C54.626 82.69 52.953 84 51.303 84Zm-25.5 0h-9c-1.65 0-2.677-1.31-2.282-2.913l16.564-67.174C31.48 12.311 33.153 11 34.803 11h9c1.65 0 2.677 1.311 2.282 2.913L29.521 81.087C29.126 82.69 27.453 84 25.803 84Zm81.023-84H26.977c-3.3 0-6.619 2.879-7.375 6.091l-9.228 39.342L.155 88.993C-.6 92.205 1.48 95 4.78 95h79.85c3.3 0 6.618-2.795 7.374-6.007l19.448-82.902C112.208 2.879 110.126 0 106.826 0Z"/>
    <style>
        @media (prefers-color-scheme: light) { :root { filter: none; } }
        @media (prefers-color-scheme: dark) { :root { filter: invert(100%); } }
    </style>
</svg>