<svg xmlns="http://www.w3.org/2000/svg" version="1.1" xmlns:xlink="http://www.w3.org/1999/xlink" xmlns:svgjs="http://svgjs.com/svgjs" width="34" height="34"><svg width="34" height="34" viewBox="0 0 34 34" fill="none" xmlns="http://www.w3.org/2000/svg">
<g clip-path="url(#clip0_1507_374)">
<circle cx="17" cy="17" r="17" fill="#141418"></circle>
<path d="M26.605 7.0057C26.3637 6.90314 26.062 6.96347 25.881 7.14447L16.9517 16.0436L8.03452 7.14447C7.84749 6.95744 7.58202 6.90314 7.34069 7.0057C7.09936 7.10827 6.95456 7.34357 6.95456 7.603V26.3424C6.95456 26.6019 7.09936 26.8372 7.34069 26.9397C7.41912 26.9759 7.49756 26.988 7.58202 26.988C7.75096 26.988 7.91386 26.9216 8.03452 26.801L16.9457 17.9019L25.8569 26.801C25.9776 26.9216 26.1465 26.988 26.3154 26.988C26.3999 26.988 26.5266 26.9699 26.605 26.9397C26.8464 26.8372 27.0455 26.6019 27.0455 26.3424V7.603C27.0455 7.34357 26.8464 7.10827 26.605 7.0057ZM8.34222 24.7859V9.15959L16.1674 16.9727L8.34222 24.7859ZM25.6578 24.7859L17.8326 16.9727L25.6578 9.15959V24.7859Z" fill="white"></path>
</g>
<defs>
<clipPath id="SvgjsClipPath1000">
<rect width="34" height="34" fill="white"></rect>
</clipPath>
</defs>
</svg><style>@media (prefers-color-scheme: light) { :root { filter: none; } }
@media (prefers-color-scheme: dark) { :root { filter: invert(100%); } }
</style></svg>