<svg class="brand-logo__image" xmlns="http://www.w3.org/2000/svg" xmlns:xlink="http://www.w3.org/1999/xlink" x="0px" y="0px" viewBox="0 0 512 512">
    <!-- <circle class="circle-shape" cx="256" cy="256" r="255" /> -->
    <path class="logo-shape" d="M415.7,90.8c-4-1.7-9-0.7-12,2.3L255.7,240.6L107.9,93.1c-3.1-3.1-7.5-4-11.5-2.3c-4,1.7-6.4,5.6-6.4,9.9v310.6
                c0,4.3,2.4,8.2,6.4,9.9c1.3,0.6,2.6,0.8,4,0.8c2.8,0,5.5-1.1,7.5-3.1l147.7-147.5l147.7,147.5c2,2,4.8,3.1,7.6,3.1
                c1.4,0,3.5-0.3,4.8-0.8c4-1.7,7.3-5.6,7.3-9.9V100.7C423,96.4,419.7,92.5,415.7,90.8z M113,385.5V126.5L242.7,256L113,385.5z
                 M400,385.5L270.3,256L400,126.5V385.5z" />
</svg>