<svg xmlns="http://www.w3.org/2000/svg" viewBox="0 0 112 95">
    <path d="M16.804 84c-1.65 0-2.677-1.561-2.282-3.163l16.564-67.049C31.481 12.186 33.154 11 34.804 11h9c1.65 0 2.677 1.061 2.282 2.663L29.522 80.962C29.127 82.564 27.454 84 25.804 84h-9Zm25.5 0c-1.65 0-2.677-1.561-2.282-3.163l16.564-67.049C56.981 12.186 58.654 11 60.304 11h9c1.65 0 2.677 1.061 2.282 2.663L55.022 80.962C54.627 82.564 52.954 84 51.304 84h-9Zm25.5 0c-1.65 0-2.677-1.561-2.282-3.163l16.564-67.049C82.481 12.186 84.154 11 85.804 11h9c1.65 0 2.677 1.061 2.282 2.663L80.522 80.962C80.127 82.564 78.454 84 76.804 84h-9Zm39.023-84h-79.85c-3.3 0-6.618 2.628-7.374 5.84L.155 88.868C-.6 92.08 1.481 95 4.781 95h79.85c3.3 0 6.618-3.045 7.374-6.257l19.448-82.778C112.208 2.753 110.127 0 106.827 0ZM16.804 85h9c2.069 0 4.173-1.704 4.689-3.799l16.564-67.299c.252-1.021.079-1.981-.487-2.703-.606-.773-1.588-1.199-2.766-1.199h-9c-2.174 0-4.19 1.525-4.689 3.548l-16.564 67.05c-.278 1.127-.047 2.272.634 3.141A3.302 3.302 0 0 0 16.804 85Zm25.5 0h9c2.069 0 4.173-1.704 4.689-3.799l16.564-67.299c.252-1.021.079-1.981-.487-2.703-.606-.773-1.588-1.199-2.766-1.199h-9c-2.174 0-4.19 1.525-4.689 3.548l-16.564 67.05c-.278 1.127-.047 2.272.634 3.141A3.302 3.302 0 0 0 42.304 85Zm25.5 0h9c2.069 0 4.173-1.704 4.689-3.799l16.564-67.299c.252-1.021.079-1.981-.487-2.703-.606-.773-1.588-1.199-2.766-1.199h-9c-2.174 0-4.19 1.525-4.689 3.548l-16.564 67.05c-.278 1.127-.047 2.272.634 3.141A3.302 3.302 0 0 0 67.804 85Zm39.023-84c1.252 0 2.322.48 3.012 1.35.714.902.942 2.105.64 3.387L91.032 88.514C90.344 91.436 87.353 94 84.631 94H4.781c-1.211 0-2.263-.485-2.96-1.365-.747-.943-.999-2.233-.692-3.539L20.576 6.069C21.223 3.322 24.154 1 26.977 1h79.85Z" />
</svg>