<svg class="my-glass" data-name="Layer 1" xmlns="http://www.w3.org/2000/svg" viewBox="0 0 276 351"><title>glass</title><path d="M7.73,168.48q0-67.72-.06-135.44c0-4.41,2.09-6.68,5.77-8.3,11.41-5,23.62-7,35.79-8.55a702.08,702.08,0,0,1,128.49-4.92c25.28,1.38,50.43,4.05,75.05,10.33,15.48,3.95,15.54,4,15.36,19.93q-1.41,127.7-2.9,255.38a67.72,67.72,0,0,1-.4,7c-2,16.83-7.38,21.25-20.06,25.22-19.6,6.13-39.87,9-60.24,10.76-26,2.23-52.16,3-78.29,1.14-24.86-1.78-49.74-3.61-73.54-11.93a85.4,85.4,0,0,1-13-5.91c-8.27-4.55-10.91-11.4-10.83-20.25.16-16.66,0-33.32,0-50V168.48ZM22.61,42.34c-2.22.74-4.15-.69-6.26-.83-1.27-1.59-2.63-2.78-4.94-1.94-2.58.93-1.31,3-1.31,4.49-.22,87.15.71,174.29,1.33,261.44.05,6.57,2.47,11.88,8.22,15.57a61.86,61.86,0,0,0,13.51,6.34c27.05,9.3,55.25,11.34,83.47,12.4a497.74,497.74,0,0,0,80.13-3c17.46-2.17,34.81-5.14,51.43-11.33,8-3,12.25-8.74,14-16.79a58.82,58.82,0,0,0,1-11.92c.27-23.32.59-46.65.82-70q1-96.23,2-192.44c.05-3.81-1.3-5.85-4.59-7.26a91.35,91.35,0,0,0-14.76-4.59c-30.29-7.21-61.16-9.36-92.14-10.15A582.12,582.12,0,0,0,41.6,20.3c-8.46,1.44-17.19,2.19-25,6.35-1.49.79-3.25,1.67-3.2,3.47s2,2.46,3.55,3c2.2.74,4.4,1.5,6.63,2.15,15.87,4.61,32.18,6.35,48.57,7.67,1.55.13,4-.81,4.24,2.11v0l-23-2.31.16.1q-17-3.23-34-6.45c-6.67-1.26-8.43-3.25-7.74-8.69-4.26,3.47-3.67,7.82,1.54,10.11,7.5,3.29,15.49,4.82,23.51,6.2,5.82,1,11.63,2,17.45,3.06A145.08,145.08,0,0,1,22.61,42.34Z"/><path d="M22.61,42.34C24,45.5,27.85,44.12,30,46.12A3.06,3.06,0,0,0,28,48.78c0,.77-.36,1.46-1.11,1.14-3.78-1.64-8.51-.75-11.58-4.29,1.09-1.13,2.54.91,3.72-.56-1.12-1-2.24-2-3.34-3.1,0,0,.08-.32.2-.39s.32,0,.48-.07C18.46,41.65,20.39,43.08,22.61,42.34Z"/><path d="M57.76,234.66c2.31,1.81,4.78.46,7,0,1.68-.37,1.51.36,1.75,1.25l0-.11a190.87,190.87,0,0,0-30.39,8.07c-1.68.6-2.49-.52-3.53-1.15-9.88-6-15.68-14.89-17.85-26.13-.94-4.85,3.74-6.06,6.16-8.72,1.17-1.27,3.49-.09,4.34-2.39-2.53.26-5.21.19-6.82,2.14-1.39,1.66-2.83,1.86-4.27,1-2.07-1.18-.56-2.82,0-4.27l3.23-.3c-.14,1.73-2.63,1.28-2.57,3.33,2.16-.83,4-2,6-2.24,3.59-.46,3.82-2.47,3.11-5.25,3.83.69,5,4.17,6.72,6.84,5.3,8.42,13.64,13.81,20.25,20.91a3.82,3.82,0,0,0,3.63,1.28c8.14-2.14,16.74-2.77,24.18-7.22a12,12,0,0,0,2.13-2.22c-1.63-.54-3.35,1.58-4.76-.88,1.4-1.24,3.81-1.54,4.72-4-3.06.24-5.34,3-8.91,2.25,1.78-2.59,4.79-2.27,7.25-3.9-2.49-1.81-4.73.92-6.85-.38l4.28-2c-10.08.74-18.86,5.64-28.52,7.74,8.79-4.37,18.34-6.92,27.29-11-8.13.5-15.19,4.84-23.07,6.32,6.68-4.12,14.58-5.36,21.37-9.22-8.07,1.38-15.5,4.66-23.18,7.57-.46-2.17,2.33-1.52,2.46-3,6.37-1.48,12.2-4.33,18.07-7.09-6.08,2.17-13,2.35-18,7.2-3.15.21-6.27.48-4.57-4.45.23-.65-.15-3.31-1.63-.42-.2.39-.81.12-.75-1.27.15-3.74.37-7.47.6-11.79,2.8,2.19,4.51,5.52,8.29,5.31a1.29,1.29,0,0,1,1,.75c.29,1.15-.8,1-1.39,1.46-1.61,1.2-4.08,1.69-4.19,5,5.39-2.47,10.46-5.13,16-6.46,1.67-.4,2.06-1.53.47-2.81-4.8-3.87-6.63-10.22-12.6-14.05,3.59-.3,4.28,2.37,6.47,3.47-.73-3.93-3.47-5.69-6.46-7.35,1.64-1.72,3.23.58,4.7-.25a8,8,0,0,1,1-.12c7.85,20.21,21.39,36.87,33.88,54.19a12.86,12.86,0,0,1,1.77,3c.87,2.4,1,4.36-2.66,3.88-2.71-.37-4.88,2.48-7.9,1.41-.55-.2-1.61,1-1.84-.68-.18-1.28.37-1.69,1.64-1.8,2.54-.23,5.07-.67,7.61-1,0-1.77-3.15-.91-2-3.64.65-1.61-2-1.66-3.41-1.48a266.6,266.6,0,0,0-29.3,4.94,3,3,0,0,1,2.08-1.88,104.53,104.53,0,0,1,20.49-3.56c2.83-.16,5.86.38,8.64-1-.25-.58-.31-.84-.38-.85-10.92-1.09-21.3,1.51-31.49,4.94-2.07.7-2,2.75-.36,4.36-1.6-1.72-4-.47-5.79-1.67-.18-.58.1-1.68-.76-1.57a81.92,81.92,0,0,0-17.63,3.94c6.39.43,12.3-2.26,18.56-2.55-4.43,3.39-10.43,2.54-14.92,6,7-.45,13.54-3.6,20.54-4.16C57.07,236.12,57.42,235.39,57.76,234.66ZM45.58,229c-5.35,3.46-11.83,3.08-17.11,6.82L48,231.71c-1.18-5.09-4.61-3.89-7.91-3.2-3.07.65-3.53.6-3.54-.3,0-3.4-2.74-1.6-4.09-2.08-1-.36-.06.83-.16,1.27-.75,3.44,3-.75,2.76,2.08-2.2,1.27-5.42.93-8.51,3.49ZM18.93,217.22c4.75-.57,9.33-1.84,14.07-2.24C28,213.4,23.3,214.51,18.93,217.22Zm16.51.5c-6.92-1.1-12.9.16-15.86,3.1ZM23.5,226.1c5.23-1.54,10.92-.57,16-2.65C34,223.18,28.53,223.37,23.5,226.1Zm14.18-4.87c-5.31-2.45-10.21-.07-15.19,1.26C27.62,222.85,32.57,221.12,37.68,221.23Zm-19-6.82,11.25-2.28C25.61,210.37,22,211.7,18.66,214.41Z"/><path d="M256.3,125.93c2.39,1.67,8.43,1.53,3.43,6.88l-.15.16c-4.6.1-8.3,3-12.67,4-25.25,5.52-50.87,7.31-76.59,8.27q-7.42.27-14.85.39c-4.7.08-9.41,0-14,1,35.44,2.93,70.47-.09,105.53-7.48l-2.1,2.62c-1.19-.58-2.53-1.69-2.84.81-3.4-1-6.51.58-9.74,1.1-6.45,1-12.8,2.63-19.33,3.49,4.16,1.21,8.28-1.32,13.47.09-6.49,1.46-12,2.72-17.66,1.19h.33c-6-1.27-12-.56-18,0-10.3.91-20.6,1.4-30.93,1.56-1.78,0-4.12-1-4.95,1.83l-.33.32c-3.89-.44-12.85,5.24-14.43,9.28,3.08-.89,4.91-4.22,9.11-4.3-2.78,2-4.86,3.6-7.05,5s-1,2.2.53,2.93L143,165c-.24.53-.8,1.19-.66,1.59.42,1.18,1.25.3,1.89.11s1.43-.52,2.15-.79c-.2,2.4-5.17,1.6-3.54,5.24-3-2.63-2.42-6.61-3.67-9.9-3.29-8.63-7.83-10.57-16-6.14a33.84,33.84,0,0,1-3.16,1.31l-3-.28c-.23-1.19-1.26-.91-2-1.12l-2,.91,0,.08-1.15-.11-1.37.21c3.06-4.33,7.57-6.29,12.54-6.95a10.61,10.61,0,0,0,6.89-3.09c-19.58-.35-38.75-1.32-57.87-3.18a439.06,439.06,0,0,1-48.68-7.2,14.27,14.27,0,0,1-3.83-1.05c-1.8-.95-5.18-.45-5.13-3,.05-2.92,3.19-2.72,5.46-3.06,7.78-1.17,15.5-3,23.47-2.17,2.71.28,2.32-1.31,2-3.2-1.08-5.72-4.16-10.6-7.17-15.28C32.11,98.58,32.72,88.91,35,79c1.62-7,8.45-7.88,13.73-10.48-.76.53-1.54,1-2.28,1.61-3.48,2.63-8.89,3.58-9.83,8.5-1.42,7.42-3.54,15,.11,22.5,3.41,7,7.1,13.9,10.16,21.06,2.73,6.41.68,8.84-6.58,8.57,1-1.74,4-1.08,4.51-3.91-9.06,1.56-18.15,1-27.5,4.38,3.76,2.58,7.34,3,10.77,3.64,41.15,7.92,82.74,9.87,124.55,9.24,29.43-.44,58.68-2.58,87.71-7.49a109.87,109.87,0,0,0,12.51-3.33c1.76-.5,3.53-1.08,3.11-3.68-.46-2.85-2.4.3-3.31-1-.43-.6-1.52-.66-1.68-1.64Z"/><path d="M165.52,203.83c1.89-4.53,7.64-4.42,10.55-9.17l-10.6,5.45c.08-4.33,3.92-5.05,6-7.29.94-1,3.3-1.62,2.24-3.18a4.35,4.35,0,0,0-4.54-1.62c-.56.17-1.08.88-1.81.18-.31-1.9,2.31-1,2.22-2.46-5.28-4.14-9.91-8.92-12.11-15.91l-6.86,3.94c1.32-3.15,5.39-3.6,6.83-6.74h-2.5c-.05-1.45,2.82-1.5,1.68-3.56A11,11,0,0,1,152,166c-.33-2.2,3.33-1.9,2.82-4.4-2.32.51-3.7,2.9-6.19,2.53.84-2.4,4.64-2,5.21-5.41L143,165l.08.11c1.81-3.55,5.51-4.77,8.49-6.88,2.12-1.51,4.5-2.8,3.35-6.08l.33-.32c10.72,1.17,21.38-.34,32.69-1-3.17,2.44-6.08,2.42-9.24,2.42-6.3,0-12.6.75-18.9.92-2.63.08-2.92,1.07-2.62,3.36,1.45,10.81,5.32,20.06,15.05,26.17,3.94,2.47,5.44,6.42,4.91,11.21-1,8.75-2,17.48-2.09,26.31,0,4.24,1.55,5.24,5.35,4.45a33,33,0,0,1,17,.8c-7.56,3-15.11,3.68-22.26,5.8,4.06,1.49,7.79-.83,11.69-.41l-.1-.1c-1.36,2.1-3.83,1.93-5.62,1.88-5-.14-7.78,1.59-7.44,7.26h8.66l.05.65L171.24,243c4.61,1.87,9.29.46,15.28.75-4.27,2.35-8,1.08-11.7,2.63,5.3,2,10.48-.23,15.32,1.72-4.19-.62-7.57-.45-7.67,4.87-2.42,3.34-3.56-.21-5.21-1-1.58-3.09-4.28-3.25-7.31-2.7-1,1.45,1.52,2,1,3.43-1.44.55-2.49-1.6-4-.73l.15.07c-1.55-1.63-1.52-1.61-2-.59a3.69,3.69,0,0,0,1,4.64l-.15-.09,2.45,1.07h.44c.62.17,1.51.12,1.82.53.73.94,2.44-1.82,2.44.68,0,1.15-.81,1.4-2.05,1.44-10.94.37-21.85,1.26-32.81,1-7.55-.21-15.1-.27-22.65-.48-2.26-.07-4.65.57-6.74-.87l.42-.5c3.36-.77,6.29-2.65,10.31-1.15,3.43,1.28,1.39-.35.09-.94,1.51-.68,2.32-3.15,4.62-1.82l3.81-2.9c1.18,2.9,9.38,5.29,13.35,4.93,10.88-1,18.77-7.37,26.85-13.7a10.86,10.86,0,0,0,4.63-8.35c.38-7.72.58-15.44.83-23.16,0-.8.2-2-.22-2.34-3.27-2.56-.44-4,1.48-6.22-4.26.35-6.48,3.32-9.49,4.62,1.58-4.32,6.87-4.55,9.49-8.65C171,199.93,168.69,202.77,165.52,203.83Z"/><path d="M76.4,45c1.11-2,3-1.79,4.85-1.68a601.9,601.9,0,0,0,63.29.25c6.83-.31,13.5,1,20.3.37,7.28-.69,14.74,0,21.89-1.29,8.14-1.42,16.33-2.11,24.55-2.94-8.65-2.51-17.59-2.3-26.34-3.64,14.07-1.13,27.92,2.81,42,2-13.4-4.33-27.26-5.52-41.14-6.75,7.23-1,14.38.08,21.49.9,8.06.92,16.14,1.88,24,4,3.38.93,6.54.51,11-1a440.49,440.49,0,0,0-52.12-8.69C209.82,26.89,229,31,248.36,34c-13.64-5.66-28.05-7.65-42.16-11.25,8.44,1.42,16.93,2.63,25.32,4.32S248.31,30.9,256.89,32c-13.81-6.23-28.54-8.79-43.2-11.66,16.87,2.41,33.88,4.14,50.29,11.17-8.66,4.76-17.86,6-27,7.55C193.68,46.25,150,46.5,106.2,45.74c-9.94-.17-19.88-.5-29.81-.75Z"/><path d="M232.72,259.71c4,1.89,8.36,1.88,12.63,2.26a23.16,23.16,0,0,1,9.58,2.51c-9.8-.92-19.56-2.82-29.56-1.25.68,2.3,2.78-.16,3.4,2-4.73,1.52-9.85-.8-15.11,1.4,14.54.87,28.48,1.76,43.21,5.4-2.84,1.24-4.46.35-6,.07a267.88,267.88,0,0,0-69.15-3c-21,1.71-42.15.83-63.23.67-14.81-.11-29.62-.58-44.43-.56-3.81,0-7.43,1.39-11-1.66-1.24-1.07-1.26,3.5-3.83,2.93h.06c-7.73-.95-15.17,1.43-22.77,2a45.48,45.48,0,0,1-10,.14c6.29-1.71,12.2-2.16,18.08-2.87.94-.11,2.76.76,2.53-1.25-.2-1.79-1.72-.87-2.78-.83-5.54.2-11,2-16.7.6l23.15-3.61c-9-1.5-17.72.68-26.58,1.07,4.56-2,9.42-2.22,14.22-2.75,1.8-.2,3.76.12,4.65-2.06L43,261c.88-.39,1.62-1.16,2.76-.86,23.83,6.31,48.22,7.55,72.72,8.27,27.64.82,55.23.56,82.77-2.12,10.75-1.05,21.13-4.06,31.62-6.49Z"/><path d="M206.64,247.68c-.8-2.29-.9-3.34,2.42-3.72a92.81,92.81,0,0,0,26.57-7c1.36-.59,2.94-1.12,3.86-2.17,1.36-1.56,2.77-3.55-.77-4.66-2.45-.77-5.38-3.33-7.05-2.62-5.48,2.33-10-2.19-14.67-.66,1.45,1.34,4.16,1,6.3,2,1.95,1,6.65,1,1.83,4.74-.47.36-.07,1.84-.07,4.4-1-3.7-2.32-4.19-4.63-3.56a63,63,0,0,1-19,2.26c6.3-2.08,13.09-2.26,19.95-5.41-6.87-4.54-14.35-3.23-22.55-4.87,8.29-.72,15-1.71,21.56-4.68,2.3-1.05,6.21,1.48,9.4,2.32,7.62,2,15.07,4.47,21.94,8.39,4,2.28,4.14,5,.36,7.51a96.1,96.1,0,0,1-21,10.07c-3.78,1.36-6.43-1.77-9.78-1.32l-6-1.68c-1.63-2.09-4.19-.39-6.44-2.36C210.87,249.2,208.66,248.32,206.64,247.68Z"/><path d="M246.06,60c-1.26-1.18-3.9-2.43.32-3.16a29,29,0,0,0,4.36-1.45c-.09-1-.55-1.65-1.26-1.35-5,2.11-8.22,1.56-8.47-4.91-.06-1.63-1.66-2.76-4.1-2.27-3.38.67-6.8,1.91-11.89,1,14.12-3,27-5.34,39.5-11.2-1.29,12,.18,23.53-2.18,35V46.9c-2.53,4.18.75,9.89-4.21,13.25-4.06-1.21-7.52,1.49-11.36,1.74-.27,0-.72.7-.7,1.07a.89.89,0,0,0,1.39.78c3.33-1.86,7.52-1.17,10.6-3.69,2.36,6-2.41,6.54-7.05,7.88,3.65,2.08,5.8-1.5,9.22-.28A32.61,32.61,0,0,1,245.57,72c1.49-1.59,3.38-2.15,5.77-2.58-2.38-2.64-4.51.19-7-.57,3.84-3.06,8.78-2.57,12.45-5.16-4.8-.27-9.12,2.53-15,1.9,3.41-1.12,1.36-4.65,4.15-5.63a22.42,22.42,0,0,0,11.11-3.22,77.16,77.16,0,0,0-8.6,1.45C247.17,58.39,245.67,57.84,246.06,60Z"/><path d="M190.07,293.29c-5-2.23-9.26-.36-13-2.31h14v-.6l-24.15-1.69,0-.31h32c-15.09-1.33-28.7-2.83-42.44-2.54,9.43-2.7,57.42,1.66,64.87,5.81-7.56,2.07-15.09,2.66-22.61,3.05-14.56.76-29.1,2.19-43.72,1.87-1,0-2.21.4-2.21-1.07a1.9,1.9,0,0,1,2.48-1.78c6.69,1.44,13.27-.74,19.92-.47C179.77,293.44,184.26,293.29,190.07,293.29Z"/><path d="M189.82,130c15.1-10.14,29.91-4.32,45.71-1.71-4.54,3.9-9.17,3.83-13.46,4.48-7,1.06-14.06,1.67-21.09,2.5-1.83.22-4.09,1.44-5.22-.68-1.36-2.54,3-1.52,2.77-3.89A12.41,12.41,0,0,1,189.82,130Z"/><path d="M52,145c-6.31-2.52-13.13-2.29-19.66-3.66-1.27-.26-2,.95-2.69,1.91a64.83,64.83,0,0,0-4.24,6.12c-3.88,7.16-3.81,7.19-13.53,4.56h9.63c-3-2.34-7.08-.67-9.79-4.36,3.94,1.06,7.23,2,10.77.89l-7.94-1.93c3.53-1.35,6.06-.05,9.11-.39-3-2.35-6.5-1.5-9.88-3.43,4.42-1.39,8.31,1.95,12.29-.28-4.79-1.41-9.49-1.52-15-4.2,5.62-.11,9.39,2.52,13.62,1.64.3-1.61-3.25-.6-2-2.9s3.24-.92,4.4-.64a275.15,275.15,0,0,0,31.76,5.09c6.15.71,12.33,1.25,19.31,1.94-4.57,2.12-9.73-2.14-12.52,3.26l-1,1.11-18,16.91c4.23-6.6,10.7-11.34,14.88-18.1-5.38,2.11-7.9,7.88-14,11,3.19-4.74,7.52-7.09,9.81-11.15-2.24-1.39-3,1.13-5.14,1.36.46-1.43.86-2.67,1.27-3.9Z"/><path d="M38.73,294.07l15.49-1.85c-2.7,1.77-6,1.11-9.07,3.79,4.66.16,8.1-2.25,13-1.77l-6.77,2.11c30.64,6,61.5,7.26,92.77,7.17-1,2.62-3.07,2-4.67,2-32-.11-63.82-2.21-95.38-7.61a29.77,29.77,0,0,1-5.71-1.55c-3.76-1.44.72-1.49.45-2.38Z"/><path d="M134.27,105.79l-12.77,2.67-.17-.66,17.88-5.93L139,101l-12,3.14c-.22-2.27,2.47-1.42,2.73-3.42l-17.1,3.62c4.94-2.9,10.76-3,15.62-6.23l-16.16,3-.22-.95c3.48-.79,7-1.4,10.44-2.44,1.79-.54,4.16.1,5.29-2.12h0c2.17,2.53,5.24,3.5,8,2.35,8.24-3.44,16.9-1.33,25.43-2.17-8.62,4.32-18.68,4.94-26.91,10.19Z"/><path d="M101,255l8.24,3.79-.42.5c-9.19-.58-18.88,1.05-26.56-6.6-.29,2.29,1.83,2.3,2.12,4-5.17-.86-10.25-1.63-15.29-2.58-6.3-1.18-7.83-2.27-9.36-7,9.57,3.11,19.66.47,28.22,6.16.13.09.25.35.35.33,4.45-.75,7.62,3.22,11.89,3.21,1.4,0,1.4.2.9-1.93Z"/><path d="M178.09,131.1c-1.66-3-4.7-1.43-7.06-1.94-1.51-.33-3.23.34-6.05-1,6.18-.57,11.23-.06,16.21-1.27,5.35-1.3,8.07-6.42,13.44-7.53-6.53-1-12.85.24-19.11-1.12,3.95-.29,7.92-.47,11.86-.92,4.52-.52,9-.67,13.44-2.59,5.74-2.45,11.76.47,17.54,1.56,7.57,1.42,15.69,1.66,21.73,7.66,1,1,2.6-.64,3.81.56-2.46,1.19-4.46,1.59-6.59-.94-2.35-2.8-6-3.23-9.46-3.93-7.75-1.59-15.51-3.14-23.47-3.23a7.89,7.89,0,0,0-5.85,2.06c-5.38,5-12.28,7.78-18.15,12.08-.58.42-1.57.28-2.38.41Z"/><path d="M102.33,271.87c27,.07,54.05.33,81.08-.13C156.39,275.89,129.36,275.1,102.33,271.87Z"/><path d="M162.73,126.92c-2.69-2.09-1.44-4.36-.42-6.34,2.13-4.12,4.66-8,6.75-12.18,3.78-7.46,4.44-15,.81-22.9C166,77,161.33,68.83,157.34,60.36c-1.1-2.33-3.39-5.25,0-8.13,2.39,2.67,3.22,6.05,4.51,9.14q5.44,13.07,10.63,26.26c3.57,9.17,1,17.69-3.52,25.72C166.48,117.68,164,121.92,162.73,126.92Z"/><path d="M80,237.85q-10.89,1.54-21.79,3.09c-1.64.23-3.54.31-4,2.25-.49,2.15,1.2,2.82,2.92,3.25,2.2.56,2.27,2.4,1.91,4-.66,2.84-2.48.54-3.48.33-4-.85-8-2.1-11.91-3.19-1.15-.32-2.34-.71-2.51-2.08-.19-1.58,1.29-1.79,2.26-2.21,6.91-2.92,14.3-3.87,21.63-5C70,237.57,74.93,236.17,80,237.85Z"/><path d="M64.62,149.73l1-1.11a7,7,0,0,1,4.9-.79c2.87.62,5.86,1.82,9.18,1.25-3.88.39-4.27,5-7.94,6.06,0-2.51,3-2.76,3-5-3.63-1.33-4,3.13-6.42,3.77a5.47,5.47,0,0,1-.28-.87c-.21-1.45,3.15-2.26,1.22-3.5-1.68-1.09-2.71,1.32-3.39,2.66-3.81,7.47-7.79,15-5.93,23.85a8,8,0,0,0-1,.12c-6.54-4.47-.65-9.44-.56-14.46-3.07,1.68-3.15,5.08-4.74,8-.59-5.77-3,.16-4.31-1.45C54.33,162,60.92,157,64.62,149.73Z"/><path d="M250.26,150.72c3.34-1.07,6.59-1.54,9.5,1.11-1.35,2-2.79-1-4.26.62,2.11,1,1.59,3.32,2.31,5.16.65,1.64.63,1.65-4,2.71.15.91.87.59,1.39.64s1,0,1.49,0,.82,0,.68,1.08c-.38,2.75-2.11,3.58-4.29,4.71l4.85-.4c-.88,2.47-3.71,1.5-4.78,3.18,1.32,1,2.9-.13,5,.54l-5.61,2.79h5.71l-3.32,2.89,4.35.46c-1.88,1.7-4.94,1.14-6.55,3.35l.14,0c-1.59-.06-1.94-.6-1.89-2.4.22-8-.4-16,1.24-23.85.48-2.26-1.23-1.81-1.93-2.61Z"/><path d="M129.23,300.56c-22.88,1.13-45.51-1.65-68.14-4.48C84,294.84,106.47,299.79,129.23,300.56Z"/><path d="M227.23,298.36c5.35-3.79,12-3.9,17.85-6.34,1.79-.75,4-.61,5.6-2.86-14.37-5.87-29.54-6.64-44.82-8.51,5.76-3.15,45,4.15,50.38,9.41a95.59,95.59,0,0,1-29.09,8.18Z"/><path d="M59.54,128.69c5.16,3.5,11,4.56,16.95,5.38,14.61,2,29.36,1.86,44.05,2.76,2.56.16,5.13.27,7.69.33,1.18,0,2.05.4,1.87,1.67s-1.26.75-2,.7c-19.12-1.57-38.45-.67-57.39-4.48C65,133.89,62.32,132.24,59.54,128.69Z"/><path d="M196.49,312c19.19-3.54,38.32-7.39,56.95-13.33C235.65,308.2,216.08,310.15,196.49,312Z"/><path d="M215.27,247l6,1.68c.86,1.9,3.62.59,4.58,3-6.39,1.51-12.74,2.87-19,4.52-5.46,1.45-6.86-4.32-12.26-5.61,3.46-.4,4.82,1.55,6.45,1.42,4.49-.37,4.48-.53,8.74.89.23-1.07-.75-1.21-1.21-1.62a23.43,23.43,0,0,0-2-1.47l8.25,2.62C212.56,249.24,212.56,249.24,215.27,247Z"/><path d="M246.94,193.93c3.38.66,6.28-1.86,10.24-1.48-4.08,3.12-9.21,2-12.69,5.25l12.26-2.6c-4.13,3.44-9.7,2.65-14,5.68l13.26-2.1a4,4,0,0,1-4,2.07c-8.73-.31-14.37,4.8-18.56,11.39-1.56,2.45-5.27,2.94-5.34,6.45,0,.14-1.54.57-1.75.33-.93-1,.12-1.83.76-2.44a96.4,96.4,0,0,0,15.66-19.72c1.12-1.8,2.91-2,4.38-3Z"/><path d="M165.9,48.53c24.41-2,48.76-3.66,73.8-7.77C231.22,45.74,182.62,49,165.9,48.53Z"/><path d="M92,279.31Q72.51,281.17,53,283c-7.78.74-15.38,2.56-23,4.29-1.81.41-3.93.86-5.36,2.46-.76.85-1.74,2.14-2.65.49-.76-1.37-.46-2.56,1.58-3.27,6.37-2.21,13-2.79,19.59-3.9A280.48,280.48,0,0,1,92,279.31Z"/><path d="M232.83,259.82c3.06-1.56,6-3.38,9.19-4.63a43,43,0,0,0,15-10.43c1.16,4.24-5.47,4.79-3.77,9-1.66.56-3.57-.92-5.47.74l7.24,2.21c-5,.74-8.74-1-13.07.45,4.62,2.2,9.51,1.12,13.36,3.86-7.48-1.6-15.05-.86-22.57-1.32A1,1,0,0,0,232.83,259.82Z"/><path d="M209.47,159.79c5-3.66,10.27-3.54,15.22-4.28,2-.3,1.25,2.41,1.77,3.7.4,1,1.34,2.4-.19,3.31-2.16,1.28-11.7.47-13.4-.89C212,160.92,214.36,155.85,209.47,159.79Z"/><path d="M111.7,317.72c-3.57,2-7.59,1.29-11.63,2.5.55-2,2.14-1.49,3.23-2.9-18.4-1.22-36.46-2.31-54.14-6.58,7.05.86,14.1,1.84,21.17,2.54,9.69,1,19.4,2,29.12,2.41,3.45.17,6.15,4.4,10,1.62l-.16.06,2.56.46Z"/><path d="M145.57,241.37c-1.1-4.1-.46-8.19.24-12.25.56-3.26,4.29-3.07,5.92-5.86.93,3.17-2.5,3.2-2.57,5.39,2.92.21,4.32-3.84,7.78-2.4-2.21,1.8-4.91,2.75-6.71,5.68,4.19.19,5.48-5.05,9.55-3.72-4.72,4.72-11.93,6.4-14.32,13.23Z"/><path d="M255.57,302.52c-5.94,5.47-32.2,12.64-42.09,11.15C228.56,310.45,242.24,307.29,255.57,302.52Z"/><path d="M170.12,309.72c-20.35-1.19-40.64-.36-60.94,1,6.52-2.07,13.31-1.93,20-2.45s13.54-.41,20.32-.49A91.93,91.93,0,0,1,170.12,309.72Z"/><path d="M256.2,307.61a88.45,88.45,0,0,1-47.59,9.79A167.5,167.5,0,0,0,256.2,307.61Z"/><path d="M37.85,183.87c-5.07-.12-4.76,2.76-5,5.69-.15,1.59,1.27,4.35-2,4.75-.87.1-1.76.06-2.64.09.71-.78-.1-2.21,1.39-2.79.83-.32,1.36-1.4,2.08-2.2-1.68-1.34-2.85.33-4.67.86,1.29-3.85,5.64-5.35,6.13-9.63-2.69.29-3.18,3.55-6.43,4.4l7.14-10.84C34.73,177.82,34.43,181.07,37.85,183.87Z"/><path d="M45.83,325.05c3.22-1.08,4.2,2.34,6.47,3.28,8.69,3.6,17.91,4.57,27,6.14-11.54-.63-23-2-34-5.54-2-.66-2.08-2.34-1.78-4.09Z"/><path d="M116.1,36.64c6.73-1.49,13-4.78,20.13-4.72a15.43,15.43,0,0,1,8.46,2.38c2.85,1.82,2.06,3.17-.86,5.36,1.89-3.8-.41-4.55-2.56-5.16-7.26-2.06-14,.09-20.71,2.68-4.86,1.88-9.47,4.44-15.08,5.64,2.24-5.09,8.28-2.49,10.64-6.3Z"/><path d="M43.05,260.91,24.88,262l-.15-.82,9.56-1.49c-7.22-.37-11-5.24-14.33-10.83,6,7.11,14.84,7.77,22.64,10.78.26.1.25.88.36,1.34Z"/><path d="M102.58,240.18c-.63.56-1.73,1.18-1.38-.27s2-2.55,1.94-4.11c1.87-2.22,3.12,4.93,5.31.09.15-.32,1,2.59,3.21,2.19-.77-2.61-1.53-5.2-2.61-8.85,3,3.25,3,7.14,5.62,9.51,1.45-2.92-1.7-5-1-8,3.44,2.55,2.72,8.62,8.11,9.24H105Z"/><path d="M42.61,252.49a257.63,257.63,0,0,0,53.79,9.59C88.62,264.41,52.22,257.86,42.61,252.49Z"/><path d="M140.1,332c16-1.35,32.07-2,48.06-3.79C172.32,331.71,156.24,332.26,140.1,332Z"/><path d="M204.58,280.06c-18.47-.85-36.94-.94-55.38-1.8A407.78,407.78,0,0,1,204.58,280.06Z"/><path d="M87.53,130.26c7.26.37,14.52.68,21.77,1.12,3.86.23,7.76.1,11-2.06,3.75-2.52,7.65-2.53,11.85-1.76-5.32-.27-10.06,1-13.81,4.93-.29.3-.94.25-1.42.38C113,133.86,91.66,132.31,87.53,130.26Z"/><path d="M122.09,293.74c9.23,1.58,18.25-.44,27.06,1.38C140.9,298.09,124.22,297.14,122.09,293.74Z"/><path d="M110.49,163c-.19,4.07-5.59,6.17-4.54,11-1.14-3-2.83-5.9-3.31-9-.81-5.27-2.94-3.86-5.62-1.66-.72.59-1.16,1.67-2.39,1.36,2.14-5.51,3.8-5.94,10-2.6h.07c-.08,1.83,1,1.37,2,1l3.86-.09Z"/><path d="M197.89,217.05c-6.73,1.41-13.45,3.14-20.87.8,2.74-1.73,4.94-.31,6.85-.43,2.73-.18,5.77-2.53,7.78-4.75,2.3-2.55,3.72-.13,4.77.54,1.34.85-1.74,1-1.15,2.39.62,1.86,3.5-3.63,3.41,1C198.43,216.76,198.16,216.91,197.89,217.05Z"/><path d="M170.71,333a160.38,160.38,0,0,1-47.09,2.22Z"/><path d="M111.8,317.83c8.75-2.12,17.68-1.74,26.57-1.9,12.25-.22,24.5-.36,36.66,1.91-6.87-.3-13.75-.76-20.63-.87-11.93-.18-23.87-.64-35.77.78a53.46,53.46,0,0,1-6.93,0Z"/><path d="M259.58,133l.15-.16c.77,0,1.89-.4,2.25,0,1.09,1.11-.76,1-.82,1.39-.36,2.37-.33,4.89-3.27,5.8l-10.95,3c.12-.63,0-1.56.39-1.83C251.29,138.24,254.75,134.58,259.58,133Z"/><path d="M177.26,252c1.65.75,2.79,4.3,5.21,1l3.29.44,1,.54c1.53,3.71,0,4.79-3.67,4.92-4.7.16-9.78,1.71-10.37-5.66,2.63.55,3.49,3.85,6.3,5C179.45,255.63,175.48,254.52,177.26,252Z"/><path d="M246.94,143l10.95-3c.46,2.38-2.35,2.16-3.06,3.58,1.24,1.2,2.13-.47,3.25-.15.23,2.19-2.57,1.61-2.94,3.4l2.72.3c-1.22,4.13-6.1.18-7.58,3.6h0c-.89-2.31.73-2.75,3.07-3.11-3.23-2.51-7.72-1.09-9.71-4.62l.3-.05v-.3Z"/><path d="M13.73,172.67c4.61-1.59,6.29-.51,6.38,3.7.09,3.81,1,7.61.2,11.5-1.42-3.1-8.23-4.61-2.74-9.85C17.86,177.75,18,172.87,13.73,172.67Z"/><path d="M134.09,106c6.19-2,12.38-4,18.58-5.95,2.34-.73,4.71-1.44,7.81-.76l-5.95,2.35.12-.08c-11.35,2.1-21.59,7.8-33,9.94,3.77-2.8,8.86-2.75,12.57-5.67C134.27,105.79,134.09,106,134.09,106Z"/><path d="M227.15,298.24c-13.14,3.46-26.57,4.44-40,5.42l-.17-1.23c3.92-.43,7.82-1,11.75-1.26a188.23,188.23,0,0,0,25.79-3.48,2.78,2.78,0,0,1,2.72.66Z"/><path d="M212.36,274.27c13.78.57,27.56,1.07,40.89,5.3C239.6,278,226.05,275.58,212.36,274.27Z"/><path d="M30,279.89c13.15-3.34,26.28-5.52,39.72-5.11Z"/><path d="M234.13,171c-5-.93-10-.29-15.65.4,2-3.29,4.94-4.24,7.57-5.94l-3.39-.58c.27-.44.4-.87.57-.88,5.55-.64,8,3.52,10.78,7.08Z"/><path d="M121.55,312.88c.09-1.55,1.13-1.72,2.41-1.79a269.94,269.94,0,0,1,44.13.93q-20.59,0-41.19,0c-1.81,0-3.67-.12-5.37.76Z"/><path d="M54.39,64.84c9.9-7.31,22.83-7.12,32.94-13.93C78.09,59.88,64.87,59,54.39,64.84Z"/><path d="M55.82,308l40.55,3.87C82.79,312,69.31,311.11,55.82,308Z"/><path d="M65.63,316.69a107.06,107.06,0,0,1-35.21-5.55C42.11,313.33,53.93,314.59,65.63,316.69Z"/><path d="M126.24,32.1l-40.31,3A192.43,192.43,0,0,1,126.24,32.1Z"/><path d="M252.35,313.54c-7.55,4.12-15.86,5.88-24,8.14-2.53.7-3.15-2.53-5.5-2.41C233.26,319.82,242.71,316.23,252.35,313.54Z"/><path d="M33.36,300l34.86,5.61A119.1,119.1,0,0,1,33.36,300Z"/><path d="M154.53,101.6c1.07,1.36,2.55-.39,4.16.86l-33.33,11.67-.43-1.15c8.28-3.06,16.56-6.1,24.82-9.21,1.67-.63,3.69-.52,4.89-2.24Z"/><path d="M81.91,184c2.42,6.66,7.52,11.59,11.25,17.41a73.14,73.14,0,0,1,5.42,9.27c-7-9.06-14.42-17.79-19.55-28.17,2.42-1.24,1.65,1.79,3,1.67Z"/><path d="M102.58,240.18,105,240c2.2,2.86,5.58,2.38,8.55,2.88,5.35.91,11,.32,16.3,2.62a3.35,3.35,0,0,1-3.75.58c-3.47-1.12-7.14-1.87-10.7-1.15a12.75,12.75,0,0,1-11.56-3l.14.12Z"/><path d="M59.22,270.5c.87,1.83,3.24.39,4.25,1.91L27.24,277a170.72,170.72,0,0,1,29.64-5.22c.91-.07,2-.07,2.4-1.31Z"/><path d="M209.1,148.43h-.33c4.57,5,10.25.54,15.56,1.65-3.1,2.71-7.3,1-11.3,4l12.71-1.61c-6.49,4.43-14,3-17.25-2.79C208.36,149.45,208.88,148.85,209.1,148.43Z"/><path d="M56.6,135.85l-14.07-1.66c.38-.66.46-1,.66-1.11C50.08,130.27,50.08,130.28,56.6,135.85Z"/><path d="M60.81,66.23c-3.56,3.17-3.89,8.43-8,11.35l4.68-10-1.07-.66L48.53,81.37c2.61-6.21,2.87-14,10.87-16.61.58-.19,1.12-.88,1.43.15a4.2,4.2,0,0,1-.16,1.46Z"/><path d="M126,27.4c-13,1.3-26.07,1.61-39,3C99.92,28.35,112.92,26.92,126,27.4Z"/><path d="M249.05,282.56c-11-2-22.12-3.07-33.09-5C227.16,278.18,238.33,279.05,249.05,282.56Z"/><path d="M90.74,204.78c-7.17-6.62-11.76-15.11-16.6-23.43l1.06-.73Z"/><path d="M182.52,95.9c9.57-.5,19-1.21,28.36-2.6A63.48,63.48,0,0,1,182.52,95.9Z"/><path d="M158.05,105.07a47.7,47.7,0,0,1-21.52,7.64C143.39,109.32,150.31,106.13,158.05,105.07Z"/><path d="M178.44,113.52l32.73-4.25C200.44,112.1,189.63,114.33,178.44,113.52Z"/><path d="M226.48,272.24c9.55.32,19.14.35,28.18,4.1C245.35,274.31,235.76,274.37,226.48,272.24Z"/><path d="M59,84c-.21.93-.27,2.34-1.63,1.8-1.57-.62-1.3-1.89-.56-3.29,3-5.77,5.9-11.61,9.21-17.26a11.54,11.54,0,0,1-2.83,8.13Z"/><path d="M82.07,184.13c.68-.83,4.2-.31,4.61,1,2.56,8.25,9.92,13.52,12.37,21.9-4.72-6.73-9.49-13.43-14.11-20.24-.84-1.24-1.22-2.74-3-2.85Z"/><path d="M137.75,319.11c-11.64.5-23.27,1.3-34.87,2.66C114.36,319,126,318.84,137.75,319.11Z"/><path d="M183.67,74.35l30.91-3.21C209.14,73.64,194.23,75.31,183.67,74.35Z"/><path d="M183.2,107.18c2.43-.32,4.85-.69,7.28-1,7-.77,14.07-1.5,21.15-1.86A84.15,84.15,0,0,1,183.2,107.18Z"/><path d="M256.3,125.93,251,127a19.71,19.71,0,0,0-3-.25c-1.62.11-2.6-.58-2.78-2.13-.21-1.92,1.36-1.22,2.36-1.55,2.91-1,5.76-2.09,9.66-2.13-3.48,2.52-7.19,2-10.69,3.71,4.64,1,8.35-1.82,12.38-1.33,0,.14.07.27.11.4C257.24,123.34,256.9,124.79,256.3,125.93Z"/><path d="M165.34,123.1c6.69-1.11,13.45-.58,20.51-.35C183.11,125.08,174.73,125.34,165.34,123.1Z"/><path d="M116.1,36.64l0-.12c-10.92,2-22,1.75-33.06,2.68C94.08,38.42,104.85,34.87,116.1,36.64Z"/><path d="M187.18,222.38c3.77-1.66,7.63-1.72,11.54-1.54,1.69.07,4.1.39,3.83,2-.34,2.12-2.76,2.39-4.78,1.65C194.33,223.27,190.75,223,187.18,222.38Z"/><path d="M213.7,98c-7.61,3.51-19.4,4.75-32,3.56C191.87,100.82,202.05,99.9,213.7,98Z"/><path d="M52,145l1.41.84c-1.9,1.82-4.93,1.73-6.15,3.71-3.89-7-11.93-.38-16.16-5.45.29-1.59,1.66-.49,2.61-.38C39.79,144.39,45.78,146.29,52,145Z"/><path d="M82,201.19,68.88,179.92c6.26,6,9.86,13.57,14.34,20.63Z"/><path d="M38.86,294c-.79.74-2.08-.42-2.89,1.06s-2.1-.08-3.19-.27L34.11,293l2.48-.37c6.53-3.69,14-1.39,20.74-3.5-6.16,1.9-12.67,2.26-18.6,5Z"/><path d="M103.85,241.9c.1,2,2.88,1.65,3,4-3.68-.76-7.07,1.25-10.78,1-1.34-.07-2.47-.37-2.38-1.78.15-2.41,1.84-.15,2.12-.47,2.26-2.52,5.23-2.5,8.19-2.64Z"/><path d="M127.15,313.18H162v.68H127.23Z"/><path d="M197.89,217.05c.27-.14.54-.29.79-.45a6.66,6.66,0,0,0,1.71-1c1-1.07,2.12-3.6,2,.42,1.49-1.3,1.53,3.37,3.32.8,1.15,1.38,2.85,0,4.05.8.2.14.15,1-.09,1.32-1.1,1.29-3.35,2.82-4.08,2.24C203.18,219.32,199.78,219.56,197.89,217.05Z"/><path d="M87.83,240.23c-.79,4.1,3.06,4,5.63,6.06-4.51.87-8-.45-11.62-.34-1,0-1.35-.54-1.17-1,.62-1.78,2.37-3.5,3.81-2.89C86.67,242.94,86.94,241.81,87.83,240.23Z"/><path d="M210.2,76.94a60.54,60.54,0,0,1-25.56,2.44Z"/><path d="M230.56,265.21c8.5,0,17-.11,25.09,3.25C247.29,267.38,238.94,266.19,230.56,265.21Z"/><path d="M214.29,60.94a80.37,80.37,0,0,1-27.49,2.34Z"/><path d="M185.16,303.16a60,60,0,0,1-19.25,1.41l0-1.41Z"/><path d="M214.58,66.05a62.27,62.27,0,0,1-25.77,2.36Z"/><path d="M196.35,176.77c-3.83-5.53-5.72-11.85-7.56-18.2C192.46,164.16,194.58,170.4,196.35,176.77Z"/><path d="M187.37,84.81l25.32-2.67C204.5,85.33,195.92,85,187.37,84.81Z"/><path d="M149.38,84.7c-2.71-1.52-3.3-4.64-5.95-5.92-2-1,.09-1.5.43-1.77.8-.62.09-3.57,2.24-1.83.72.57,3-.28,2.27,2A7.76,7.76,0,0,0,149.38,84.7Z"/><path d="M153.94,64.21l-3.68,2.67.28.58,6.09-1.55-2.81,2.54c1.05,1.09,2-.58,3.29.09-.8,1,.27,3.45-2.5,2.82s-5.64-2.14-6.28-4.48C147.91,65.35,151.08,64.17,153.94,64.21Z"/><path d="M128.05,252l-3.81,2.9c-1-1-.88-2.7-2.54-3.42,2.91-1.44,6.1-.93,8.55-2.7.7-.51,1.29-1.81,2.25-.46.79,1.1-.07,1.72-.92,2.35C130.51,251.47,129.56,252.44,128.05,252Z"/><path d="M186.75,253.91l-1-.54c-.18-1.37-.36-2.73-.69-5.13,3.61,2.88,6.38,5.07,9.12,7.29.52.41.93,1,.36,1.65s-.94.28-1.71-.3C191.06,255.55,188.81,254.86,186.75,253.91Z"/><path d="M125.9,23.05c-8.35.76-16.7,1-25,1.66C109.11,22.31,117.58,23.46,125.9,23.05Z"/><path d="M153.65,126.58l-18,1c4.11-1.93,8.73-1.26,11.74-4.55,1.74,1.75,4.75,1.34,6.15,3.65Z"/><path d="M53.42,42.69c3.06,2.21,7.12,1,10.51,3.11-7.08.69-13.56-1.29-20.11-3h9.77Z"/><path d="M13.27,195.69c1.85-.6,1.89-.89,2.5-2.89.5-1.63,2.71-.59,3.69-2-.37-1.28-2.17.1-2.52-1.54.14-.53.95-.23,1.48-.27,3.75-.27,3.81,3.43,3.2,4.74C19.93,197.34,16.19,195.75,13.27,195.69Z"/><path d="M239.33,183.35q-9,1.07-18,2.08c-.2,0-.45-.38-1.12-1C226.81,182.68,233,181.9,239.33,183.35Z"/><path d="M165,112.67a8.56,8.56,0,0,1-6.5,5.13,1.87,1.87,0,0,1-2-1.62c-.11-1.42,5.44-5.14,7-4.81A1.86,1.86,0,0,1,165,112.67Z"/><path d="M184,90.49l26-2.64C203.11,90.61,193,91.68,184,90.49Z"/><path d="M252.72,179.6c1.32,1.25,2.84-.59,4.44.5-1.58,1.82-4.49,1.36-6,3.33,2.08,1.12,4-1.48,6.58,0L248.61,187c2.07-2.21.41-6.47,4.23-7.42Z"/><path d="M36.59,292.58l-2.48.37-2.72,1c-2.05.73-3.5-.73-5.1-1.48a.88.88,0,0,1,.06-1.6c2-.53,3.85-1.8,6-1.21.16,0-1.31.93-.81,2C33.13,292.34,35.58,288.76,36.59,292.58Z"/><path d="M30.13,314.72l18.36,2.41C43.5,318.62,39.84,318.25,30.13,314.72Z"/><path d="M188.9,58.36l21.24-1.49A46.26,46.26,0,0,1,188.9,58.36Z"/><path d="M59,84l4.19-10.62c1.84-.24,2,1,1.56,2.17C63.49,78.77,63.81,83.15,59,84Z"/><path d="M178,131c-2.8,3.14-6.11,4.47-10.64,3.23,1.72-2.2,4-.45,5.64-1.89l-5.93-.61v-1.14l11,.51Z"/><path d="M60.67,66.37c1.59-.55,1.53-2.9,3.88-3.33C62.31,69.57,59,75.1,55.42,80.56c.77-5.17,5.07-9,5.39-14.33Z"/><path d="M180.32,156c-4.93,1.56-10.19.77-15.37.57l15.19-1.81Z"/><path d="M244.92,78.64l15.67-4.44C258.24,76.88,255.57,77.69,244.92,78.64Z"/><path d="M46.4,280.38l-20.55,3.79C32.38,281,39.53,281.08,46.4,280.38Z"/><path d="M45.83,325.05l-2.27-.21c-2.91,1.15-4.46-2-4.32-2.93.3-1.87,3-2,4.7-2.3.7-.14,3.42,1.82,1.13,4C45,323.67,46.3,324.15,45.83,325.05Z"/><path d="M142,174.14c5.06-1.13,8.06-6,13.05-7.23-2.92,3.69-7.38,5.26-11,8-1.73,1.3-3.55,2.37-4.06,4.66C137.45,176.55,141.37,175.94,142,174.14Z"/><path d="M62.28,167.78c-1.77,7.35,5,11.48,6.76,18C62.58,179.38,60.07,172.74,62.28,167.78Z"/><path d="M159,83.84c-2.05,1.84-4.41.84-4.71-1-.54-3.39,3-3.36,5.47-4l-4.9,3.51c3.6.6,4.71-2.06,7.17-1.31l-3.19,3Z"/><path d="M157.07,234.13c-.2-2.94,2.57-3.19,4.17-4.26a46.8,46.8,0,0,1,9.23-4.53c-4.17,3.4-8.46,6.6-13.49,8.68Z"/><path d="M158.84,84c1.53.76,2.61-1.44,4.35-.48-3.63,1.61.19,2.8.21,4.3,0,.41,1.78.42.88,1.54a2,2,0,0,1-1.76.35c-2.77-.94-4.91-2.37-3.52-5.86Z"/><path d="M231.59,153c.62-2.73-4-.67-5.5-3.2l9.17-1.94C232.73,149.41,231,151.21,231.59,153Z"/><path d="M109.7,49.54a27.54,27.54,0,0,1-4.92,15.12Z"/><path d="M224.43,325.54c4.3-2.54,9.2-2.62,13.94-3.35A26.81,26.81,0,0,1,224.43,325.54Z"/><path d="M244.08,75.87c5.47-2.19,11.16-3.45,16.57-5.62C256,74.83,249.82,74.79,244.08,75.87Z"/><path d="M200.72,178.83l-6.42-15.41C198.5,167.66,199.87,173.14,200.72,178.83Z"/><path d="M61.3,191.26c-4.47-3-7.1-7.93-11.84-10.66C55.19,182.14,58,187,61.3,191.26Z"/><path d="M235.37,186.86A21.15,21.15,0,0,1,222,188.37C226.38,187.1,230.79,186.25,235.37,186.86Z"/><path d="M48.81,280.14c6.16-2.29,12.53-2.67,19-2.26Z"/><path d="M101.07,254.93l-7.18-3.27h13.85c-2.83.71-5.59,2.65-8.26.3-.53,1.92,1.7,1.75,1.5,3.07Z"/><path d="M100.92,278.11h22.21v.57H100.93Z"/><path d="M50.63,71.07l-7,13.44c1.5-5,2.42-10.17,5.94-14.12Z"/><path d="M186.79,231.81a27.07,27.07,0,0,1,15.67-2.17c-5.28.47-10.26,2.86-15.76,2.08Z"/><path d="M100.68,66.26l4.76-14.56A23.44,23.44,0,0,1,100.68,66.26Z"/><path d="M257.53,93.75c-4.68,1-9,3.61-15.29,3.06C248.11,95.49,252.4,92.91,257.53,93.75Z"/><path d="M121.53,312.79l-16.59,1.7c5.46-1.28,10.77-4.37,16.6-1.63C121.55,312.88,121.53,312.79,121.53,312.79Z"/><path d="M26.82,163.93c-.17-4.62,4-4.82,6.21-7.22C34.51,162.54,28.05,160.84,26.82,163.93Z"/><path d="M258.35,79.14A37.62,37.62,0,0,1,243.57,83C249.22,80.74,253.65,79.37,258.35,79.14Z"/><path d="M127.6,95.59l-16,1.91c5.21-1.56,10.28-4.4,15.93-1.9Z"/><path d="M243.24,100l13.09-3.37C252.52,99.92,247.8,99.79,243.24,100Z"/><path d="M69.28,81.33c-.55-5.63,1.37-10.62,4-15.45C72.19,71.09,70.44,76.14,69.28,81.33Z"/><path d="M223.78,201.3A18.51,18.51,0,0,1,235.27,198C231.36,198.8,228,201.58,223.78,201.3Z"/><path d="M247.12,193.79c-.6,0-1.63.26-1.73,0a1.69,1.69,0,0,1,1.26-2.54c3.65.16,6.83-2.13,11.34-2-3.8,2.76-8.14,2.05-11.05,4.63Z"/><path d="M258.31,109.92c-5.23,3.79-10,3.9-14.77,3.83Z"/><path d="M153.52,126.65c1.63,1.81.8,2.51-1.21,2.6-4.23.2-8.43,1.1-13,.45,4.65-2.46,10-.52,14.32-3.11Z"/><path d="M243.9,152.29c2.24,3.68-2.44,8.84,3.56,12.09C242.42,163.58,241.67,160.1,243.9,152.29Z"/><path d="M147.42,213.27c.58-2.47-1.68-5.77,1.81-7.39,1.4,1.32-1.13,1.89-.23,3.12l4.67-2.39C152.13,209.34,149,210.44,147.42,213.27Z"/><path d="M226.53,209.21c-1.7-1.67,4.87-4.61-2.06-4.3,2.08-2.08,5.22-2.82,5.8-1.53C231.57,206.3,228.49,207.65,226.53,209.21Z"/><path d="M169.93,229.41c-1.78,3.66-4.85,4.15-6.73,6.08a1.45,1.45,0,0,1-2.2-.3c-.83-1.08.61-1.25,1-1.7C164,231.36,167,231.5,169.93,229.41Z"/><path d="M155.2,130.11c-.77,5.16-4.44,3.54-7.49,4.18,1-1.86,2.79-.6,4-2l-6.1-.46,0-.47Z"/><path d="M66.5,235.89c4.92-3.48,10.59-2.34,16.09-2.21q-8,1-16,2.07A.63.63,0,0,0,66.5,235.89Z"/><path d="M234,171a2.2,2.2,0,0,1,2.14,1.75c.35,1,2.06,2.18.93,2.91-2.32,1.49-1-1.26-1.71-1.85-1.3-1.15-2.76-.73-4.25-.57a23,23,0,0,1-6,0c2.71-2.27,6.45.13,9-2.29Z"/><path d="M19.57,170.89l-4.88-.36c.41-1.51,2.13-.78,2.88-2.13-1-1.32-2.9.39-3.91-1,1.8-.7,4.53.76,4.86-3.51C20.3,167.05,18.19,168.9,19.57,170.89Z"/><path d="M242.18,142.94c-.72,2.37-2.82,2.3-4.68,2.68a74.16,74.16,0,0,1-10.16,1.62c4.49-2.87,10.35-1.73,14.71-4.89l-.15.34Z"/><path d="M222.44,197.4c3.3-2.88,7.56-2.28,11.42-3.13C230.44,196.74,226.5,197.29,222.44,197.4Z"/><path d="M109.4,317.31l-3-.82a54.42,54.42,0,0,1,18.08-2.28c-5.88,1.29-10.88.69-15.25,3.15Z"/><path d="M107.94,19.17H125.6l0,.55h-17.5Z"/><path d="M87.93,70.72l4.38-12.15C92.77,63.24,90.37,67,87.93,70.72Z"/><path d="M246.34,89.06c4.42-1.3,8.57-3.58,13.82-3.83A29.69,29.69,0,0,1,246.34,89.06Z"/><path d="M241.21,161.58c-3.08-4.16,1.46-10-3.23-13.61,3-1.11,3.11-1.11,3.21,2.53S241.21,157.89,241.21,161.58Z"/><path d="M88.63,169.26q-1.53,6.17-3.07,12.34A13.18,13.18,0,0,1,88.63,169.26Z"/><path d="M157,234a21.49,21.49,0,0,1-11.39,7.34l-.13.08c2.4-1.82,4.74-3.78,7.27-5.46,1.28-.85,2.07-3.2,4.34-1.85Z"/><path d="M257.07,114.36a35.62,35.62,0,0,1-13.3,3.4C248,116,252.39,114.46,257.07,114.36Z"/><path d="M28,156.8l-4.69,7.41C23.76,161.06,23.46,157.45,28,156.8Z"/><path d="M71.55,127.84c-2.28,2-3.9.1-5.6-.52-1.4-.5-2.9-2.06-1.22-3.38,1.92-1.52.32,1.76,1.75,1.74C68.41,125.65,69.51,127.82,71.55,127.84Z"/><path d="M24.05,200.05l-10,2.84c-.24-1.1,0-1.7,1.23-2.16,2.77-1,5.71-1.32,8.51-2.43C25.66,197.55,23.83,199.42,24.05,200.05Z"/><path d="M257.19,117.73c-3.86,1.58-7.53,3.56-11.86,3C249.26,119.48,252.9,117.25,257.19,117.73Z"/><path d="M256.24,106.85a14.39,14.39,0,0,1-11.58,3.25Z"/><path d="M255.22,83.26c-3.82,2.32-8.1,3-12.39,3.52A35.21,35.21,0,0,1,255.22,83.26Z"/><path d="M168.79,257.06h-.44c-.56-.94-.53-3.23-2.45-1.07l.15.09c.61-1.28-1.11-3.14,1-4l-.15-.07A4.85,4.85,0,0,1,168.79,257.06Z"/><path d="M107,157.93a4.14,4.14,0,0,1,3.48-2l-.55,1.1.11-.16c-.77.39-.42.78,0,1.19l-.09-.17c-.28.73-.55,1.46-.83,2.18l-2.2-.18.15.13-.12-1.18.77-.44Z"/><path d="M112.9,160.08l4.16-1.63-2,3.51-2.17-1,.12.13v-1.12Z"/><path d="M105,160.93l2.06-.87-.15-.13c.06.38.12.77.19,1.15l-2.2-.18Z"/><path d="M112.89,162l-1.93-.05.11.14-.12-1.11,2.11.11-.12-.13C112.93,161.27,112.91,161.62,112.89,162Z"/><path d="M104.73,162.16h-.07l.36-1.23-.1,0,0,1.16Z"/><path d="M110.49,163l.08,0c-.48-.65,0-.85.5-1l-.11-.14C110.81,162.28,110.65,162.65,110.49,163Z"/><path d="M112.94,156l-1,2.12.12-.13-2.11,0,.09.16c0-.39,0-.79,0-1.18l-.11.16,1.84-1.21Z"/><path d="M114.94,155c-.31,1-1.18.87-2,.91Z"/><path d="M107.12,161.93l-.41,1.2c-1,.4-2.06.86-2-1l.22-.1Z"/><path d="M112,158.09l2.14-.15-1.19,2.14.17-.15-2.12.12,1.12-2.09Z"/><path d="M113.91,158.08c.11-1.57,1.15-1.36,2.19-1.14C115.87,158.28,114.86,158.12,113.91,158.08Z"/><path d="M115.92,157.08c-.14-.91.39-1.15,1.16-1.16C117.19,156.8,116.8,157.18,115.92,157.08Z"/><path d="M111.1,159.93l0,1.12-2.13,0v-1.14Z"/><path d="M106.94,162.08v-1.15h2.19A2.6,2.6,0,0,1,106.94,162.08Z"/></svg>