<svg width="154" height="27" viewBox="0 0 154 27" fill="none" xmlns="http://www.w3.org/2000/svg">
<path d="M154 16.4204C154 9.80817 149.99 5.1796 144.355 5.1796C138.719 5.1796 134.493 10.0286 134.493 16.0898C134.493 22.3714 139.044 27 145.005 27C148.365 27 151.182 25.898 153.458 22.9225L150.857 20.6082L150.532 20.9388C148.798 22.9225 146.847 23.5837 144.571 23.8041C141.212 23.8041 138.611 21.4898 138.069 18.0735H153.892V16.4204H154ZM138.177 14.4367C138.719 11.0204 140.995 8.37552 144.138 8.37552C147.823 8.37552 149.557 11.2408 150.099 14.4367H138.177ZM132.975 4.84899C129.833 4.84899 127.34 6.61226 125.606 9.47756V5.40001H121.704V26.6694H125.714V18.0735C125.714 12.5633 128.532 9.14695 133.409 9.14695H133.951V4.84899H132.975ZM108.374 5.1796C102.197 5.1796 97.6454 10.0286 97.6454 16.0898C97.6454 22.151 102.414 27 108.374 27C114.552 27 119.429 22.151 119.429 16.0898C119.429 9.80817 114.66 5.1796 108.374 5.1796ZM115.527 16.0898C115.527 20.3878 112.709 23.5837 108.7 23.5837C104.69 23.5837 101.655 20.3878 101.655 16.0898C101.655 11.7918 104.473 8.59593 108.483 8.59593C112.384 8.59593 115.527 11.7918 115.527 16.0898ZM86.9163 5.1796C84.0986 5.1796 81.4976 6.28164 79.872 8.92654C78.7883 6.28164 76.5124 5.1796 73.6947 5.1796C70.5518 5.1796 68.9262 6.61226 67.7341 8.04491V5.40001H63.7242V26.6694H67.7341V14.5469C67.7341 11.1306 70.0099 8.48572 72.8277 8.48572C75.6454 8.48572 77.5962 10.4694 77.5962 14.2163V26.5592H81.2809V14.4367C81.2809 10.3592 83.8819 8.70613 86.3745 8.70613C89.5173 8.70613 91.1429 10.6898 91.1429 14.4367V26.7796H95.1528V13.5551C94.8277 8.37552 91.7932 5.1796 86.9163 5.1796ZM51.8031 5.1796C49.2021 5.1796 47.0346 6.28164 45.3006 8.37552V5.40001H41.2908V26.6694H45.3006V14.5469C45.3006 11.1306 47.5765 8.48572 50.9361 8.48572C54.0789 8.48572 56.0297 10.4694 56.0297 14.2163V26.5592H59.9311V13.3347C59.9311 8.37552 56.5715 5.1796 51.8031 5.1796ZM39.0149 16.4204C39.0149 9.80817 35.0051 5.1796 29.3696 5.1796C23.7341 5.1796 19.5076 10.0286 19.5076 16.0898C19.5076 22.3714 24.0593 27 30.0199 27C33.3795 27 36.1972 25.898 38.473 22.9225L35.8721 20.6082L35.6553 21.049C33.9213 23.0327 31.9706 23.6939 29.6947 23.9143C26.3351 23.9143 23.7341 21.6 23.1923 18.1837H39.0149V16.4204ZM23.1923 14.4367C23.7341 11.0204 26.3351 8.37552 29.1529 8.37552C32.8376 8.37552 34.5716 11.2408 35.1134 14.4367H23.1923Z" fill="white"/>
<path d="M21.0246 0.220408H15.931L4.87684 13.2245L15.931 26.449H21.0246L9.75368 13.2245L21.0246 0.220408ZM0 26.449H4.2266V0H0V26.449Z" fill="white"/>
</svg>
