<svg width="188" height="19" viewBox="0 0 188 19" fill="none" xmlns="http://www.w3.org/2000/svg">
<path d="M186.716 1.96147C186.716 1.34857 186.334 1.10341 185.697 1.10341H184.678V4.04534H185.315V2.94212H185.57L186.334 4.04534L186.971 3.92276L186.207 2.81954C186.589 2.69696 186.716 2.45179 186.716 1.96147ZM185.57 2.45179H185.315V1.59373H185.57C185.824 1.59373 186.079 1.71631 186.079 1.96147C186.079 2.32921 185.952 2.45179 185.57 2.45179Z" fill="white"/>
<path d="M185.569 0.122581C184.168 0.122581 183.149 1.10323 183.149 2.69677C183.149 4.16774 184.168 5.27097 185.569 5.27097C186.97 5.27097 187.989 4.29032 187.989 2.69677C188.117 1.10323 187.098 0.122581 185.569 0.122581ZM185.569 4.78064C184.423 4.78064 183.659 4.04516 183.659 2.69677C183.659 1.34839 184.55 0.612903 185.569 0.612903C186.716 0.612903 187.607 1.34839 187.607 2.69677C187.607 4.04516 186.716 4.78064 185.569 4.78064ZM173.852 7.35484C172.706 6.74193 171.432 6.25161 169.776 6.25161C165.573 6.25161 162.516 8.2129 162.516 12.2581C162.516 16.3032 165.573 18.2645 169.776 18.2645C171.432 18.2645 172.706 17.7742 173.852 17.1613V18.1419H181.112V0.980645H173.852V7.35484ZM171.814 14.4645C170.54 14.4645 169.776 13.4839 169.776 12.3806C169.776 11.1548 170.54 10.2968 171.814 10.2968C172.578 10.2968 173.342 10.6645 173.852 11.1548V13.729C173.342 14.0968 172.578 14.4645 171.814 14.4645ZM160.097 7.10968H152.837V18.2645H160.097V7.10968ZM156.403 5.51613C158.441 5.51613 159.969 4.29032 159.969 2.81935C159.969 1.34839 158.313 0.122581 156.403 0.122581C154.365 0.122581 152.837 1.34839 152.837 2.81935C152.837 4.29032 154.493 5.51613 156.403 5.51613ZM142.138 18.2645H150.799L142.902 0.122581H134.242L135.133 2.20645L128.256 18.2645H132.586L133.987 15.0774H140.737L142.138 18.2645ZM135.77 11.0323L137.426 7.23226L139.082 11.0323H135.77ZM120.232 6.74194C118.576 6.74194 117.048 7.47742 116.029 8.2129V7.10968H108.769V18.2645H116.029V12.871C116.029 11.8903 116.793 11.0323 117.812 11.0323C118.831 11.0323 119.595 11.8903 119.595 12.871V18.2645H126.218V11.7677C126.345 10.6645 124.944 6.74194 120.232 6.74194ZM95.7777 13.6065H105.967C105.967 13.6065 106.222 10.9097 104.948 9.19355C103.547 7.35484 100.618 6.25161 97.4335 6.25161C94.2494 6.25161 88.3906 6.9871 88.3906 12.6258C88.3906 18.2645 93.8673 18.8774 97.4335 18.8774C104.184 18.8774 105.839 17.2839 105.839 17.2839V14.9548C105.839 14.9548 102.91 16.0581 99.2166 16.0581C95.3956 16.1806 95.7777 14.0968 95.7777 13.6065ZM95.7777 11.0323V10.6645C95.7777 9.68387 96.5419 8.82581 97.5608 8.82581C98.5797 8.82581 99.3439 9.68387 99.3439 10.6645V11.0323H95.7777ZM79.8572 6.74194C78.2015 6.74194 76.6731 7.47742 75.6542 8.2129V1.10323H68.3945V18.2645H75.6542V12.871C75.6542 11.8903 76.4184 11.0323 77.4373 11.0323C78.4562 11.0323 79.2204 11.8903 79.2204 12.871V18.2645H85.8433V11.7677C85.8433 10.6645 84.5697 6.74194 79.8572 6.74194ZM61.5168 15.0774C59.0969 15.0774 57.1864 14.3419 57.1864 12.7484C57.1864 11.1548 59.0969 10.4194 61.5168 10.4194C62.9178 10.4194 64.1915 10.6645 64.9556 11.2774V7.96774C63.2999 6.86452 61.1347 6.37419 58.7148 6.37419C53.875 6.37419 49.9267 8.33548 49.9267 12.6258C49.9267 16.9161 53.875 19 58.8422 19C61.2621 19 63.5546 18.5097 65.083 17.4065V14.2194C64.3188 14.7097 63.0452 15.0774 61.5168 15.0774ZM46.6152 15.9355C45.3416 15.9355 44.3227 14.9548 44.3227 13.6065V10.2968H48.0162V7.10968H44.3227V2.81935H36.9356V7.10968H34.7704V10.2968H36.9356V14.9548C36.9356 17.1613 39.3555 19 42.4122 19C45.0869 19 46.9973 18.2645 47.8889 17.7742V15.3226C47.6341 15.6903 47.252 15.9355 46.6152 15.9355ZM32.3505 7.10968H25.0907V18.2645H32.3505V7.10968ZM28.6569 5.51613C30.6947 5.51613 32.2231 4.29032 32.2231 2.81935C32.2231 1.34839 30.5674 0.122581 28.6569 0.122581C26.6191 0.122581 25.0907 1.34839 25.0907 2.81935C25.0907 4.29032 26.7464 5.51613 28.6569 5.51613ZM19.232 9.56129C18.7225 8.33548 17.7036 7.47742 16.3026 7.10968L21.2698 0H14.7742L10.3165 6.37419C9.93439 6.86452 9.42494 7.10968 8.91548 7.10968H8.53339V0.122581H0V18.3871H8.53339V12.0129C8.91548 11.8903 9.29757 11.7677 9.67966 11.7677C10.8259 11.7677 11.7175 12.5032 12.0996 13.4839L14.2648 18.5097H22.9255C22.9255 18.2645 19.232 9.56129 19.232 9.56129Z" fill="white"/>
</svg>
