<svg width="148" height="26" viewBox="0 0 148 26" fill="none" xmlns="http://www.w3.org/2000/svg">
<path d="M144.993 0.301158C146.642 0.301158 148 1.70656 148 3.31274C148 5.0193 146.642 6.32432 144.993 6.32432C143.345 6.32432 141.987 4.91892 141.987 3.31274C141.987 1.60618 143.345 0.301158 144.993 0.301158ZM144.993 5.82239C146.351 5.82239 147.418 4.71815 147.418 3.31274C147.418 1.90734 146.351 0.803089 144.993 0.803089C143.636 0.803089 142.569 1.90734 142.569 3.31274C142.472 4.71815 143.636 5.82239 144.993 5.82239ZM143.83 1.60618H145.187C145.963 1.60618 146.351 2.00772 146.351 2.61004C146.351 3.21236 145.963 3.51351 145.575 3.6139L146.448 5.11969H145.769L144.896 3.71429H144.412V5.11969H143.83V1.60618ZM144.412 3.11197H144.896C145.284 3.11197 145.672 3.11197 145.672 2.61004C145.672 2.10811 145.284 2.10811 144.896 2.10811H144.412V3.11197ZM131.706 13.8533V15.7606C132.094 15.7606 133.355 15.7606 133.743 16.0618C134.228 16.3629 134.616 16.5637 134.616 17.668V20.1776C134.616 20.9807 134.81 21.7838 134.81 21.7838C133.452 23.0888 130.446 23.2896 129.185 22.7876C127.148 21.9846 125.984 20.8803 125.984 12.8494C125.984 10.6409 125.887 6.22394 127.633 4.21622C128.7 3.01158 130.446 2.81081 131.609 2.81081C133.84 2.81081 135.295 3.51351 136.362 5.72201C136.847 6.72587 137.817 9.13513 137.817 9.13513H139.756L139.465 1.30502C138.204 0.803089 136.071 0 131.512 0C127.245 0 124.433 1.20463 122.493 2.81081C118.613 6.12355 118.613 11.1429 118.613 12.749C118.613 14.556 118.807 20.5791 122.202 23.5907C124.239 25.2973 126.469 26 129.961 26C133.646 26 135.683 23.4903 135.683 23.4903H135.877C135.877 23.4903 136.265 24.0927 136.944 24.695C137.526 25.1969 138.495 25.6988 138.495 25.6988H140.629C140.629 25.6988 140.435 24.1931 140.435 21.2819V17.2664C140.435 16.6641 140.629 16.2625 140.92 16.0618C141.211 15.861 141.696 15.6602 142.278 15.6602V13.7529L131.706 13.8533ZM109.788 23.39C109.206 23.6911 107.945 23.6911 107.46 23.6911V25.7992H119.68V23.6911C119.389 23.6911 118.71 23.6911 118.128 23.2896C117.45 22.6873 117.062 21.6834 116.868 21.0811C116.189 18.8726 115.51 16.6641 114.831 14.556C114.152 12.4479 113.57 10.4402 113.085 8.6332C112.6 6.82625 112.115 5.11969 111.727 3.71429C111.339 2.20849 111.049 1.10425 110.855 0.200772H104.163C104.163 0.200772 98.5374 17.668 98.0524 19.0734C97.5675 20.5791 97.0826 21.7838 96.4037 22.5869C95.7248 23.4903 94.7549 23.6911 94.464 23.6911V25.8996H102.902V23.7915C102.417 23.7915 100.962 23.6911 100.477 23.4903C99.8952 23.1892 99.2163 22.4865 99.9921 19.9768L100.865 17.166H108.624L109.4 19.4749C110.273 22.2857 110.467 23.0888 109.788 23.39ZM101.641 15.0579L105.035 4.3166H105.229L108.042 15.0579H101.641ZM98.2464 0.301158H71.0904V2.40927C71.8663 2.40927 72.7392 2.50965 72.9332 3.11197C73.3211 3.91506 72.8362 5.52123 71.9633 7.9305C70.6055 11.3436 69.6357 13.7529 69.6357 13.7529H69.4417C67.9869 10.5405 66.9201 8.03089 66.1442 6.32432C65.3683 4.61776 64.9803 3.51351 64.9803 3.11197C64.9803 2.81081 65.0773 2.50965 66.9201 2.50965V0.301158H54.8938V2.40927C55.7667 2.40927 56.4456 2.50965 56.8336 2.71042C57.2215 2.9112 57.6094 3.21235 57.9004 3.81467L61.1009 10.7413C62.0708 13.0502 64.0105 17.4672 64.0105 17.4672V22.0849C64.0105 22.4865 63.9135 22.7876 63.8165 22.9884C63.7195 23.1892 63.4286 23.39 63.1376 23.4903C62.8467 23.5907 62.4587 23.6911 61.9738 23.7915C61.4889 23.7915 60.907 23.7915 60.325 23.8919V26H73.903V23.8919H73.0301C72.5452 23.8919 72.0603 23.7915 71.7693 23.5907C71.4784 23.4903 71.1874 23.2896 71.0904 23.0888C70.8965 22.888 70.8965 22.5869 70.8965 22.1853V16.9653L75.7457 6.12355C76.1337 5.22008 76.7156 3.91506 77.2975 3.51351C77.8794 3.11197 78.5583 3.11197 79.7222 3.11197C81.4679 3.11197 81.8558 3.31274 82.1468 3.71429C82.4378 4.01544 82.4378 4.81853 82.4378 5.92278V22.1853C82.4378 22.7876 82.1468 23.1892 81.4679 23.4903C80.983 23.6911 80.1101 23.7915 79.0433 23.8919V26H92.5242V23.8919C91.4574 23.8919 90.6815 23.6911 90.0996 23.4903C89.5177 23.1892 89.1298 22.7876 89.1298 22.1853V5.82239C89.1298 4.71815 89.1298 4.01544 89.4207 3.6139C89.7117 3.21236 90.0026 2.9112 91.8454 2.9112C93.3001 2.9112 93.882 2.9112 94.27 3.31274C94.9489 3.91506 95.5308 5.22008 95.9187 6.12355L96.9856 8.43243H98.7313L98.2464 0.301158ZM56.5426 23.39C55.8637 22.7876 55.4758 21.7838 55.2818 21.1815C54.6029 18.973 53.924 16.7645 53.2451 14.6564C52.5662 12.5483 51.9843 10.5405 51.4994 8.73359C51.0144 6.92664 50.5295 5.22008 50.1416 3.81467C49.7536 2.30888 49.3657 1.20463 49.1717 0.301158H42.4797C42.4797 0.301158 36.8545 17.7683 36.3696 19.1737C35.8847 20.6795 35.3028 22.0849 34.7208 22.7876C34.0419 23.6911 32.9751 23.7915 32.1992 23.7915C30.5505 23.7915 29.9685 23.4903 29.9685 21.8842V4.11583C29.9685 2.81081 30.9384 2.40927 33.46 2.40927V0.301158H21.7248L17.2634 16.2625H17.0695L11.8322 0.301158H0.0969856V2.40927C2.61861 2.40927 3.58847 2.81081 3.58847 4.11583V21.4826C3.58847 22.2857 3.29751 22.888 2.61861 23.2896C2.0367 23.5907 1.16383 23.7915 0 23.7915V25.8996H9.21363V23.7915C8.0498 23.7915 7.17693 23.5907 6.69201 23.2896C6.20708 22.9884 5.91612 22.2857 5.91612 21.4826V4.91892H6.11009L13.287 25.8996H16.6815L22.8886 4.91892H23.1796V21.8842C23.1796 22.5869 23.0826 23.1892 22.5007 23.4903C22.0157 23.7915 20.8519 23.7915 20.367 23.7915V25.8996H41.3159V23.7915C40.8309 23.7915 39.3762 23.6911 38.8912 23.4903C38.3093 23.1892 37.6304 22.4865 38.4063 19.9768L39.2792 17.166H47.038L47.8139 19.4749C48.6868 22.2857 48.9777 23.0888 48.2988 23.4903C47.7169 23.7915 46.4561 23.7915 45.9712 23.7915V25.8996H58.1914V23.7915C57.8034 23.7915 57.1245 23.7915 56.5426 23.39ZM39.9581 15.0579L43.3526 4.3166H43.5465L46.3591 15.0579H39.9581Z" fill="white"/>
</svg>
