<svg width="156" height="50" viewBox="0 0 156 50" fill="none" xmlns="http://www.w3.org/2000/svg">
<path d="M153.357 10.5725C151.819 10.5725 150.72 9.36585 150.72 7.83014C150.72 6.18472 151.928 5.08778 153.357 5.08778C154.785 5.08778 155.993 6.18472 155.993 7.83014C156.103 9.47555 154.895 10.5725 153.357 10.5725ZM153.357 5.52656C152.148 5.52656 151.269 6.51381 151.269 7.83014C151.269 9.03677 152.038 10.1337 153.357 10.1337C154.565 10.1337 155.444 9.25616 155.444 7.83014C155.554 6.40411 154.565 5.52656 153.357 5.52656ZM152.917 9.36585H152.368V6.29442H153.466C154.235 6.29442 154.565 6.51381 154.565 7.17197C154.565 7.72044 154.235 7.93983 153.796 8.04952L154.675 9.36585H154.126L153.357 8.04952H152.917V9.36585ZM153.466 7.61075C153.796 7.61075 154.126 7.61075 154.126 7.17197C154.126 6.84289 153.796 6.73319 153.466 6.73319H152.917V7.61075H153.466ZM144.129 5.52656L148.523 5.19748V33.718H144.129V5.52656ZM112.93 13.5342C119.192 13.5342 121.609 17.2638 121.609 23.8455C121.609 29.9884 119.412 34.047 112.93 34.047C106.449 34.047 104.142 29.9884 104.142 23.8455C104.142 17.2638 106.778 13.5342 112.93 13.5342ZM117.105 23.8455C117.105 20.1159 116.446 17.0444 112.93 17.0444C109.415 17.0444 108.536 20.0062 108.536 23.8455C108.536 27.4654 109.305 30.5368 112.82 30.5368C116.336 30.5368 117.105 27.5751 117.105 23.8455ZM132.594 13.5342C138.856 13.5342 141.273 17.2638 141.273 23.8455C141.273 29.9884 139.076 34.047 132.594 34.047C126.113 34.047 123.806 29.9884 123.806 23.8455C123.806 17.2638 126.442 13.5342 132.594 13.5342ZM136.769 23.8455C136.769 20.1159 136.109 17.0444 132.594 17.0444C129.079 17.0444 128.2 20.0062 128.2 23.8455C128.2 27.4654 128.969 30.5368 132.484 30.5368C136 30.5368 136.769 27.5751 136.769 23.8455ZM85.2469 13.7536H88.5426L88.8721 15.1796C90.1904 14.4118 92.6072 13.4245 94.8043 13.4245C98.759 13.4245 101.725 16.3863 101.725 23.4067C101.725 30.3174 98.6491 33.8277 93.486 33.8277C91.6185 33.8277 89.5313 33.3889 89.5313 33.3889V42.4935L85.1371 42.9323C85.2469 43.1517 85.2469 13.7536 85.2469 13.7536ZM89.6411 29.9884C90.8495 29.9884 91.5086 30.0981 92.8269 30.0981C95.5732 30.0981 97.3309 28.672 97.3309 22.8582C97.3309 18.9092 95.6831 17.8123 92.8269 17.8123C91.7283 17.8123 90.6298 18.0317 89.5313 18.3608L89.6411 29.9884ZM77.2276 5.52656L81.6218 5.19748V33.718H77.2276V5.52656Z" fill="white"/>
<path d="M107.109 1.57762C103.813 -2.26167 93.377 1.13885 81.7324 9.25621V11.3404C91.9489 3.99089 100.957 0.590374 103.593 3.55212C106.779 7.39141 98.7598 19.7869 85.5773 31.195C72.3948 42.7129 59.1025 48.8558 55.9167 45.1262C54.2689 43.1517 55.5871 38.8736 59.1025 33.6083H57.0152C52.6211 40.19 50.9733 45.7844 53.2802 48.417C57.3448 53.2436 72.7244 46.6619 87.5547 33.718C102.495 20.7741 111.173 6.40417 107.109 1.57762Z" fill="white"/>
<path d="M68.1096 13.7538L68.6589 15.3992H68.9884C70.1968 14.412 71.9545 13.5344 74.3713 13.5344H75.2501V17.9222C74.4811 17.8125 73.6023 17.7028 72.7235 17.7028C71.5151 17.7028 70.5264 18.0319 69.4279 18.4706V33.6084H65.0337V13.7538H68.1096ZM59.3213 5.74612C61.6282 5.74612 61.9578 7.06245 61.9578 8.59817C61.9578 10.1339 61.5184 11.4502 59.3213 11.4502C57.1242 11.4502 56.6848 10.0242 56.6848 8.59817C56.6848 7.06245 57.1242 5.74612 59.3213 5.74612ZM57.1242 13.7538H61.5184V33.6084H57.1242V13.7538ZM37.0209 5.52674L41.415 5.19765V12.1084L41.3052 14.741H41.415C43.5023 13.9732 45.0402 13.6441 47.1275 13.6441C50.6428 13.6441 53.0596 15.2895 53.0596 21.4324V33.6084H48.6654V21.6518C48.6654 17.9222 46.9077 17.4834 44.8205 17.4834C43.5023 17.4834 42.4037 17.8125 41.3052 18.0319V33.6084H36.911V5.52674H37.0209ZM35.0435 5.41704L27.3537 33.6084H22.9595L17.5767 13.0956L12.084 33.6084H7.68979L0 5.41704H4.39417L9.88688 25.9298L15.3796 5.41704H19.7738L25.2665 25.9298L30.7592 5.41704H35.0435Z" fill="white"/>
</svg>
