<svg width="156" height="19" viewBox="0 0 156 19" fill="none" xmlns="http://www.w3.org/2000/svg">
<path d="M155.877 2.67949C155.877 4.14103 154.645 5.35897 153.166 5.35897C151.687 5.35897 150.455 4.14103 150.455 2.67949C150.455 1.21795 151.687 0 153.166 0C154.768 0.121795 155.877 1.21795 155.877 2.67949ZM151.318 2.67949C151.318 3.77564 152.18 4.62821 153.289 4.62821C154.398 4.62821 155.261 3.77564 155.261 2.67949C155.261 1.58333 154.398 0.730769 153.289 0.730769C152.057 0.730769 151.318 1.58333 151.318 2.67949ZM152.919 3.89744H152.18V1.58333C152.303 1.58333 152.796 1.46154 153.289 1.46154C153.905 1.46154 154.152 1.58333 154.275 1.70513C154.398 1.82692 154.521 1.94872 154.521 2.19231C154.521 2.4359 154.275 2.67949 153.905 2.80128C154.152 2.92308 154.275 3.04487 154.398 3.41026C154.521 3.77564 154.521 3.89744 154.521 4.01923H153.659C153.536 3.89744 153.536 3.77564 153.412 3.53205C153.412 3.28846 153.289 3.16667 153.043 3.16667H152.796V3.89744H152.919ZM152.919 2.55769H153.166C153.412 2.55769 153.659 2.4359 153.659 2.3141C153.659 2.07051 153.536 1.94872 153.166 1.94872H152.919V2.55769ZM144.663 0.730769H140.474L129.261 18.8782H134.066L135.668 15.8333H149.223L151.071 18.8782H156L144.663 0.730769ZM138.009 12.0577L142.445 4.87179L147.005 12.0577H138.009ZM117.678 14.0064L105.232 0.974359H99.9336V18.8782H104V6.08974L116.199 18.8782H121.744V0.974359H117.678V14.0064ZM77.1374 0.730769L65.9242 18.8782H70.7299L72.3318 15.8333H85.8863L87.7346 18.8782H92.6635L81.327 0.730769H77.1374ZM74.673 12.0577L79.109 4.87179L83.6682 12.0577H74.673ZM46.455 13.8846L39.0616 0.974359H34.1327V18.8782H37.9526V7.42949L44.9763 19H48.3033L54.9573 7.30769V19H58.654V0.974359H53.8483L46.455 13.8846ZM11.2133 0.730769L0 18.8782H4.80569L6.40758 15.8333H19.9621L21.8104 18.8782H26.7393L15.4028 0.730769H11.2133ZM8.74881 12.0577L13.1848 4.87179L17.7441 12.0577H8.74881Z" fill="white"/>
</svg>
