<svg xmlns="http://www.w3.org/2000/svg" width="182" height="25" viewBox="0 0 180 25"><defs><style>.cls-1{fill:#fff;}</style></defs><title>Artboard 1</title><path class="cls-1" d="M45.3.47h-17a.13.13,0,0,0-.14.13V24.34a.13.13,0,0,0,.14.13h15.2a.13.13,0,0,0,.12-.07l1.82-3.55a.14.14,0,0,0-.12-.2H32.59V14.29h5.77a.13.13,0,0,0,.12-.08l1.84-3.58a.14.14,0,0,0-.12-.2H32.59V4.29H43.45a.14.14,0,0,0,.12-.07L45.42.67a.14.14,0,0,0-.12-.2"/><path class="cls-1" d="M99.45,14.89,84.12.09a.27.27,0,0,0-.47.18V24.34a.13.13,0,0,0,.14.13h4.14a.13.13,0,0,0,.13-.13V10.07L103.39,24.9a.27.27,0,0,0,.47-.19V4.14a.15.15,0,0,0,0-.1L99.68,0a.14.14,0,0,0-.23.1Z"/><path class="cls-1" d="M115.67,24.39a.13.13,0,0,1-.12.08h-5.11a.14.14,0,0,1-.13-.19L122.86.16a.28.28,0,0,1,.5,0l12.55,24.12a.13.13,0,0,1-.12.19h-5a.13.13,0,0,1-.12-.08s-7.5-15-7.52-15Z"/><path class="cls-1" d="M175.21,24.26l-8.65-8.11a8.36,8.36,0,0,0,4.33-7.57A8.51,8.51,0,0,0,162.28.47h-9.43a.13.13,0,0,0-.11.21l4.42,4.19a.14.14,0,0,0,.11.06h5.08a4,4,0,0,1,4,3.71,3.9,3.9,0,0,1-3.81,4.07h-5.64a.13.13,0,0,0-.11.21l12,11.5a.16.16,0,0,0,.11,0h6.13a.13.13,0,0,0,.12-.21"/><path class="cls-1" d="M147,.14v24.2a.13.13,0,0,1-.14.13h-4.3a.13.13,0,0,1-.13-.13V4.24a.12.12,0,0,1,0-.1l4.3-4.1a.14.14,0,0,1,.23.1"/><path class="cls-1" d="M69.72,14.89h0L54.39.09a.27.27,0,0,0-.47.18V24.34a.14.14,0,0,0,.14.13H58.2a.13.13,0,0,0,.14-.13V10.07L73.67,24.9a.27.27,0,0,0,.47-.19V4.14a.12.12,0,0,0,0-.1L70,0a.14.14,0,0,0-.23.1Z"/><path class="cls-1" d="M0,18.41a.14.14,0,0,1,.07-.1l4.23-4c.08-.08.27,0,.27.1v3.16a2.93,2.93,0,0,0,2.95,3h3.6a3,3,0,0,0,3-3V4.16a.13.13,0,0,1,.06-.1l4.24-4c.08-.08.27,0,.27.09V18.51a6,6,0,0,1-6,5.94H6a6,6,0,0,1-6-5.94Z"/><path class="cls-1" d="M180,2.79A2.39,2.39,0,1,1,177.62.47,2.33,2.33,0,0,1,180,2.79Zm-4.18,0a1.8,1.8,0,0,0,1.82,1.85,1.78,1.78,0,0,0,1.77-1.84,1.8,1.8,0,1,0-3.59,0ZM177.26,4h-.54V1.69a4,4,0,0,1,.89-.08,1.54,1.54,0,0,1,.81.17.68.68,0,0,1,.22.51.59.59,0,0,1-.48.54v0a.7.7,0,0,1,.43.57,1.74,1.74,0,0,0,.17.58h-.58a1.75,1.75,0,0,1-.19-.57c0-.26-.18-.37-.48-.37h-.25Zm0-1.32h.25c.3,0,.54-.1.54-.34s-.15-.35-.49-.35a1.8,1.8,0,0,0-.3,0Z"/></svg>